<?xml version="1.0" encoding="UTF-8"?>
<svg xmlns="http://www.w3.org/2000/svg" version="1.1" viewBox="0 0 87.98 92.151">
  <defs>
    <style>
      .cls-1 {
        fill: #00fff3;
      }
    </style>
  </defs>
  <!-- Generator: Adobe Illustrator 28.7.1, SVG Export Plug-In . SVG Version: 1.2.0 Build 142)  -->
  <g>
    <g id="Capa_1">
      <g id="Capa_1-2" data-name="Capa_1">
        <path class="cls-1" d="M44.074,89.087c-6.097,0-11.754-1.097-16.977-3.294-5.219-2.194-9.771-5.227-13.641-9.1-3.869-3.869-6.899-8.414-9.096-13.637-2.194-5.219-3.298-10.883-3.298-16.981,0-6.028,1.093-11.658,3.271-16.889,2.182-5.223,5.215-9.767,9.104-13.633,3.881-3.866,8.44-6.918,13.66-9.142,5.223-2.232,10.864-3.348,16.927-3.348,4.851,0,9.403.709,13.648,2.125,4.245,1.419,8.122,3.409,11.623,5.967l-7.378,7.478c-2.562-1.684-5.342-3.003-8.348-3.946-3.003-.943-6.182-1.415-9.545-1.415-9.315,0-17.119,3.129-23.412,9.384-6.289,6.258-9.438,14.074-9.438,23.454,0,9.307,3.145,17.115,9.43,23.416,6.293,6.305,14.089,9.453,23.404,9.453s17.115-3.145,23.419-9.441c6.301-6.293,9.449-14.093,9.449-23.412,0-1.434-.1-2.857-.303-4.261-.199-1.407-.502-2.78-.909-4.13l8.187-8.084c1.009,2.493,1.806,5.116,2.378,7.869.568,2.753.855,5.595.855,8.529,0,6.117-1.112,11.788-3.34,17.008-2.232,5.223-5.277,9.775-9.142,13.664-3.869,3.885-8.417,6.914-13.641,9.096-5.227,2.182-10.853,3.271-16.889,3.271M37.961,66.04l-17.993-18.093,6.976-6.976,11.018,11.021L80.01,9.94l7.075,6.976-49.124,49.124Z"/>
      </g>
    </g>
  </g>
</svg>