<?xml version="1.0" encoding="UTF-8"?>
<svg xmlns="http://www.w3.org/2000/svg" version="1.1" viewBox="0 0 87.98 92.151">
  <defs>
    <style>
      .cls-1 {
        fill: #00fff3;
      }
    </style>
  </defs>
  <!-- Generator: Adobe Illustrator 28.7.1, SVG Export Plug-In . SVG Version: 1.2.0 Build 142)  -->
  <g>
    <g id="Capa_1">
      <g id="Capa_1-2" data-name="Capa_1">
        <path class="cls-1" d="M15.263,63.917c-1.887-2.765-3.229-5.645-4.042-8.644-.809-2.999-1.212-6.117-1.212-9.349,0-9.096,3.302-17.015,9.909-23.753,6.6-6.742,14.419-10.109,23.446-10.109h4.349l-6.872-6.976L45.589.336l16.379,16.478-16.379,16.375-4.851-4.751,6.772-6.872h-3.942c-6.535,0-12.179,2.408-16.927,7.225-4.755,4.82-7.129,10.53-7.129,17.134,0,2.155.219,4.176.66,6.063.433,1.891,1.024,3.639,1.764,5.258l-6.673,6.673v-.002ZM42.356,91.816l-16.375-16.375,16.375-16.578,4.851,4.851-6.976,6.876h4.349c6.535,0,12.18-2.408,16.931-7.229,4.751-4.817,7.125-10.561,7.125-17.234,0-2.09-.219-4.076-.656-5.963-.437-1.891-1.062-3.639-1.868-5.258l6.768-6.673c1.822,2.83,3.152,5.729,3.996,8.697.84,2.961,1.262,6.028,1.262,9.196,0,9.165-3.302,17.13-9.905,23.903-6.604,6.776-14.388,10.162-23.35,10.162h-4.652l6.976,6.872-4.851,4.751v.002Z"/>
      </g>
    </g>
  </g>
</svg>