<?xml version="1.0" encoding="UTF-8"?>
<svg xmlns="http://www.w3.org/2000/svg" version="1.1" viewBox="0 0 87.98 92.151">
  <defs>
    <style>
      .cls-1 {
        fill: #00fff3;
      }
    </style>
  </defs>
  <!-- Generator: Adobe Illustrator 28.7.1, SVG Export Plug-In . SVG Version: 1.2.0 Build 142)  -->
  <g>
    <g id="Capa_1">
      <g id="Capa_1-2" data-name="Capa_1">
        <path class="cls-1" d="M59.87,76.873H24.359v-40.707l20.129-20.888,3.919,2.868c.656.502,1.135,1.093,1.438,1.772.295.679.449,1.469.449,2.37v.081l-3.24,13.798h23.519c1.864,0,3.52.725,4.978,2.182,1.461,1.457,2.19,3.095,2.19,4.901v2.792c0,.652-.092,1.396-.268,2.22-.176.828-.387,1.522-.64,2.075l-9.046,21.184c-.602,1.507-1.657,2.78-3.168,3.812-1.507,1.028-3.087,1.542-4.748,1.542M19.834,76.873h-9.426v-40.711h9.426v40.711Z"/>
      </g>
    </g>
  </g>
</svg>