<?xml version="1.0" encoding="UTF-8"?>
<svg xmlns="http://www.w3.org/2000/svg" version="1.1" viewBox="0 0 541.521 528.28">
  <defs>
    <style>
      .cls-1 {
        fill: #0030fa;
      }

      .cls-2 {
        fill: none;
        stroke: #0030fa;
        stroke-miterlimit: 10;
        stroke-width: 16px;
      }
    </style>
  </defs>
  <!-- Generator: Adobe Illustrator 28.7.1, SVG Export Plug-In . SVG Version: 1.2.0 Build 142)  -->
  <g>
    <g id="Capa_1">
      <g>
        <g>
          <polygon class="cls-2" points="122.808 179.656 122.808 347.887 268.5 432.002 414.193 347.887 414.193 179.656 268.5 95.541 122.808 179.656"/>
          <g>
            <path class="cls-1" d="M268.147,252.362v-.433h.692c.159,0,.301-.017.43-.054.127-.033.228-.104.305-.211.075-.107.113-.267.113-.479v-5.424c-.263.316-.499.575-.708.775-.211.199-.418.299-.625.299-.153,0-.278-.052-.372-.155-.098-.104-.146-.238-.146-.401.207-.056.426-.14.656-.251.23-.109.516-.291.853-.546l.723-.535h.662v6.239c0,.213.036.372.113.479.075.107.178.178.311.211.13.036.272.054.424.054h.506v.433h-3.936Z"/>
            <path class="cls-1" d="M267.785,238.129v-.754l1.724-1.994c.366-.428.656-.798.869-1.112.215-.313.366-.61.46-.892.094-.284.138-.585.138-.901,0-.261-.036-.491-.111-.686-.077-.197-.192-.351-.347-.46-.153-.109-.353-.165-.594-.165-.311,0-.546.073-.711.217-.167.146-.278.332-.337.564-.058.232-.088.483-.088.759-.165,0-.314-.019-.449-.056-.134-.04-.242-.107-.32-.209-.079-.098-.119-.234-.119-.407,0-.268.075-.506.228-.713.151-.207.38-.37.681-.491.305-.121.675-.18,1.116-.18.435,0,.807.071,1.122.211.314.142.554.341.723.598.169.259.253.564.253.915,0,.194-.027.383-.079.569-.052.184-.123.37-.221.556-.098.19-.213.38-.353.575-.136.196-.295.401-.476.614-.178.215-.378.443-.598.683l-1.747,1.933h2.387c.311,0,.522-.079.631-.238.109-.159.188-.337.238-.537l.042-.188h.431l-.052,1.789h-4.441Z"/>
            <path class="cls-1" d="M269.706,223.998c-.452,0-.826-.054-1.116-.159-.29-.107-.5-.249-.635-.424-.134-.176-.201-.364-.201-.564,0-.207.059-.368.18-.487.121-.115.278-.174.47-.174,0,.357.113.656.341.893.228.238.55.357.97.357.276,0,.531-.052.761-.161.228-.105.418-.278.562-.522.146-.24.217-.568.217-.98,0-.435-.167-.782-.5-1.045-.334-.261-.79-.391-1.369-.391h-.33v-.527h.33c.303,0,.577-.065.821-.197.245-.13.441-.316.585-.556.144-.244.217-.523.217-.848,0-.407-.084-.723-.253-.945-.169-.224-.452-.337-.851-.337-.311,0-.546.073-.715.217-.163.146-.274.334-.336.564-.058.232-.086.483-.086.759-.249,0-.458-.046-.631-.138-.173-.094-.257-.272-.257-.533,0-.268.075-.506.228-.713.148-.205.376-.37.681-.491.301-.121.675-.18,1.116-.18.654,0,1.179.144,1.574.43.397.286.596.688.596,1.212,0,.311-.075.596-.219.855-.144.257-.341.477-.589.66-.249.182-.529.313-.848.387.194.021.401.065.619.128.22.067.431.167.625.307.197.136.359.318.481.543.123.222.186.506.186.851,0,.412-.079.761-.238,1.047-.159.288-.368.516-.631.685s-.546.291-.851.366c-.307.077-.61.113-.905.113"/>
            <path class="cls-1" d="M269.376,209.657v-.433h.29c.157,0,.303-.015.428-.054.128-.033.228-.104.305-.211.077-.105.115-.267.115-.479v-.848h-3.183v-.424l3.192-4.928h.982v4.772h1.281v.579h-1.281v.848c0,.213.038.374.113.479.077.107.18.178.311.211.13.038.272.054.424.054h.134v.433h-3.11ZM268.074,207.053h2.439v-1.91c0-.201.002-.428.006-.677.002-.253.012-.506.025-.759.013-.255.029-.491.04-.704-.035.069-.088.171-.165.311-.075.138-.161.288-.259.449-.096.161-.188.316-.278.466-.088.148-.165.27-.226.366l-1.582,2.458Z"/>
            <path class="cls-1" d="M269.676,195.523c-.512,0-.907-.054-1.189-.165-.282-.111-.479-.247-.592-.408-.115-.161-.173-.318-.173-.47,0-.192.054-.341.161-.449.105-.107.27-.161.491-.161,0,.192.046.368.138.527.094.159.234.284.42.376.186.094.416.142.692.142.282,0,.537-.056.759-.169.224-.109.399-.291.527-.546.127-.253.192-.598.192-1.032,0-.545-.144-.951-.431-1.216-.286-.265-.663-.397-1.141-.397-.357,0-.627.025-.803.073-.18.046-.336.102-.466.155l-.249-.073.332-3.668h3.449l.052,1.561h-.433l-.04-.311c-.015-.098-.036-.176-.069-.238-.031-.061-.082-.109-.159-.138-.077-.034-.186-.048-.33-.048h-2.004l-.197,2.282c.069-.027.157-.052.267-.077.111-.025.245-.044.405-.061.159-.019.337-.025.539-.025.447,0,.848.081,1.202.242.355.163.635.405.842.723.207.32.311.725.311,1.216,0,.284-.038.545-.107.784-.073.242-.178.458-.316.652-.138.192-.309.357-.512.495-.203.138-.435.244-.698.316-.263.071-.55.107-.867.107"/>
            <path class="cls-1" d="M270.182,181.289c-.454,0-.863-.128-1.223-.387-.362-.259-.648-.667-.859-1.229-.209-.562-.314-1.296-.314-2.207,0-.489.056-.959.165-1.409.109-.451.276-.855.495-1.208.222-.357.504-.637.844-.838.341-.203.738-.305,1.193-.305.385,0,.704.052.957.155.251.104.439.238.564.403.123.165.186.339.186.527,0,.194-.069.345-.203.454-.132.109-.332.165-.594.165,0-.226-.029-.431-.086-.614s-.155-.328-.29-.435c-.134-.107-.313-.159-.533-.159-.345,0-.633.115-.869.345-.232.23-.412.569-.537,1.018-.123.447-.199,1.007-.226,1.672.117-.094.245-.182.387-.263.142-.079.303-.144.485-.196s.385-.077.604-.077c.635,0,1.139.186,1.515.562s.564.895.564,1.557c0,.481-.088.909-.265,1.279-.176.372-.43.665-.759.874-.33.211-.731.314-1.198.314M270.212,180.722c.249,0,.458-.063.625-.19.169-.128.295-.326.383-.591.084-.265.128-.604.128-1.018,0-.592-.104-1.022-.314-1.292-.213-.268-.516-.401-.917-.401-.176,0-.347.029-.506.086-.157.059-.303.136-.433.228-.13.094-.244.188-.341.284.015,1.035.144,1.774.387,2.22.247.449.573.673.987.673"/>
            <path class="cls-1" d="M268.973,166.953l2.439-6.55h-2.571c-.186,0-.332.042-.431.134-.098.088-.157.219-.169.391l-.042.518h-.433l.052-1.869h4.619v.299l-2.544,7.077h-.918Z"/>
            <path class="cls-1" d="M269.975,152.823c-.518,0-.947-.09-1.296-.263-.347-.176-.61-.414-.786-.709-.176-.297-.263-.623-.263-.982,0-.33.069-.608.207-.836.136-.228.326-.424.564-.591.238-.165.502-.318.798-.464-.261-.151-.491-.318-.69-.497-.199-.176-.357-.383-.47-.614-.115-.232-.173-.491-.173-.78,0-.316.077-.617.228-.899.153-.282.391-.51.717-.686.33-.176.759-.263,1.289-.263.433,0,.803.075,1.104.226.305.15.535.362.694.631.157.268.236.573.236.918,0,.456-.127.807-.382,1.06-.255.249-.591.479-1.012.686.345.157.644.334.899.525.255.194.452.408.598.648.146.236.217.508.217.809,0,.656-.222,1.166-.671,1.53-.449.366-1.051.548-1.808.548M270.027,152.348c.447,0,.807-.128,1.08-.387.272-.259.408-.589.408-.988,0-.234-.058-.447-.176-.64-.115-.194-.307-.378-.573-.554-.265-.176-.619-.359-1.07-.552-.322.174-.581.401-.773.683-.196.284-.29.617-.29,1.003,0,.426.117.773.351,1.037.234.265.581.399,1.043.399M270.234,148.524c.261-.13.464-.267.604-.408.142-.142.24-.303.293-.485.058-.182.084-.395.084-.637,0-.213-.038-.416-.115-.61-.075-.19-.197-.351-.37-.474-.174-.125-.403-.186-.694-.186-.383,0-.681.117-.888.351-.207.234-.311.529-.311.888,0,.249.052.462.155.642.104.178.259.339.464.483.209.146.466.29.777.435"/>
            <path class="cls-1" d="M269.5,138.591c-.385,0-.69-.044-.909-.132-.221-.092-.374-.203-.46-.337-.086-.134-.13-.274-.13-.418,0-.13.035-.242.1-.326.065-.086.134-.142.211-.171.063.146.146.278.249.403s.234.224.393.301c.157.077.343.113.556.113.571,0,.993-.255,1.267-.763.27-.512.424-1.287.46-2.328-.098.119-.219.23-.362.343-.146.109-.313.196-.506.263-.194.065-.412.096-.652.096-.399,0-.754-.077-1.058-.232-.307-.155-.546-.387-.719-.7-.171-.314-.259-.702-.259-1.164,0-.495.09-.936.265-1.317.176-.382.43-.683.759-.899.332-.217.727-.326,1.189-.326.468,0,.884.121,1.246.362.36.242.646.615.849,1.127.207.508.311,1.17.311,1.983,0,.543-.052,1.062-.155,1.555-.104.493-.267.932-.489,1.317-.224.387-.514.69-.869.915-.355.222-.784.336-1.287.336M269.945,135.026c.337,0,.617-.084.836-.253.222-.169.374-.364.466-.583-.008-.615-.069-1.114-.186-1.499-.119-.383-.274-.669-.47-.851-.198-.182-.431-.274-.698-.274-.242,0-.449.071-.621.219-.171.142-.301.353-.393.629-.088.274-.132.615-.132,1.022,0,.566.1.972.297,1.219.201.247.502.372.901.372"/>
            <path class="cls-1" d="M265.301,124.24v-.433h.692c.159,0,.301-.017.43-.054.127-.033.228-.104.305-.211.075-.107.113-.267.113-.479v-5.424c-.263.316-.499.575-.708.775-.211.199-.418.299-.625.299-.153,0-.278-.052-.372-.155-.098-.104-.146-.238-.146-.401.207-.056.426-.14.656-.251.23-.109.516-.291.853-.546l.723-.535h.662v6.239c0,.213.036.372.113.479.075.107.178.178.311.211.13.036.272.054.424.054h.506v.433h-3.936Z"/>
            <path class="cls-1" d="M272.896,124.343c-.566,0-1.026-.159-1.384-.476s-.621-.761-.79-1.333c-.171-.571-.253-1.241-.253-2.006s.082-1.428.253-1.992c.169-.566.431-1.005.79-1.313.359-.311.823-.464,1.394-.464.539,0,.986.153,1.344.464.359.309.625.75.801,1.317.173.569.263,1.235.263,2.002,0,.763-.09,1.428-.268,1.996-.178.569-.447,1.012-.801,1.329s-.803.476-1.348.476M272.896,123.785c.337,0,.602-.128.794-.387.196-.259.334-.629.42-1.11.086-.483.13-1.064.13-1.745,0-.685-.044-1.266-.13-1.747-.086-.483-.224-.849-.42-1.103-.192-.249-.453-.376-.784-.376-.337,0-.606.127-.803.376-.201.253-.345.619-.431,1.103-.084.481-.128,1.062-.128,1.747,0,.681.044,1.262.128,1.745.086.481.23.851.431,1.11.197.259.462.387.794.387"/>
            <path class="cls-1" d="M257.984,258.527l-.376-.217.345-.6c.081-.138.136-.27.169-.399.036-.125.025-.249-.031-.37-.054-.117-.171-.23-.359-.337l-4.7-2.713c.146.385.251.719.318,1.003.069.28.05.51-.054.69-.075.13-.182.213-.318.244-.138.033-.28.008-.422-.075.058-.205.092-.437.113-.692s.004-.594-.048-1.012l-.104-.895.332-.573,5.403,3.122c.188.107.341.155.472.142.134-.012.245-.067.341-.163.094-.096.178-.211.255-.341l.255-.437.374.217-1.967,3.409Z"/>
            <path class="cls-1" d="M245.48,251.726l-.652-.38-.867-2.491c-.186-.529-.362-.964-.525-1.306-.167-.341-.349-.623-.545-.848-.197-.219-.435-.408-.708-.568-.23-.13-.447-.215-.656-.245-.205-.033-.397-.008-.569.071s-.32.221-.439.43c-.155.27-.213.512-.171.727.044.217.15.407.318.571.173.169.378.318.617.458-.082.142-.174.263-.278.36-.096.096-.213.157-.336.173-.127.019-.265-.013-.412-.102-.234-.132-.403-.318-.506-.552-.104-.234-.13-.514-.084-.836.05-.322.182-.675.405-1.055.217-.378.462-.665.744-.867.276-.201.569-.313.878-.326.309-.017.615.061.918.236.169.098.318.215.452.353.136.138.259.295.374.47.111.176.219.374.32.592.102.217.199.456.295.719.094.261.194.548.291.861l.8,2.477,1.195-2.069c.155-.267.19-.487.107-.663-.082-.174-.196-.334-.345-.474l-.142-.128.219-.378,1.521.94-2.22,3.848Z"/>
            <path class="cls-1" d="M234.196,242.991c-.228.393-.458.688-.696.888-.238.196-.468.309-.685.337-.219.027-.414-.006-.587-.105-.18-.105-.291-.238-.334-.401s-.013-.33.084-.495c.311.178.625.228.945.151.318-.079.583-.299.794-.663.136-.238.219-.485.242-.736.023-.255-.035-.504-.173-.75-.136-.245-.383-.472-.742-.679-.376-.217-.759-.245-1.15-.086-.395.157-.738.485-1.028.986l-.163.29-.454-.265.163-.286c.153-.263.232-.533.242-.811.006-.274-.056-.537-.194-.784-.134-.245-.343-.449-.623-.61-.353-.205-.669-.29-.945-.253-.28.033-.518.222-.719.569-.153.267-.211.51-.167.727.04.215.148.405.318.571.174.165.376.318.614.454-.123.215-.268.376-.433.476-.169.104-.364.09-.592-.04-.232-.134-.399-.318-.504-.554-.102-.234-.128-.514-.084-.834.05-.326.182-.675.405-1.058.324-.568.711-.949,1.156-1.15.445-.201.897-.171,1.35.094.267.151.479.359.629.612.151.255.245.537.28.842.034.307.004.615-.092.928.117-.157.257-.314.424-.472.169-.159.359-.288.577-.389.217-.102.454-.15.709-.148.257.006.533.096.832.267.359.207.621.451.788.732.169.276.261.575.276.884.015.313-.021.619-.107.924-.09.301-.207.581-.355.838"/>
            <path class="cls-1" d="M221.617,236.111l-.374-.219.146-.249c.079-.138.134-.268.169-.395.035-.128.023-.253-.033-.372-.052-.119-.174-.232-.359-.339l-.734-.424-1.59,2.757-.366-.211-2.673-5.231.491-.849,4.136,2.385.639-1.11.499.291-.638,1.108.732.424c.186.109.345.153.474.144.13-.013.245-.067.339-.163.096-.096.18-.209.255-.341l.069-.117.376.217-1.557,2.694ZM218.714,235.937l1.219-2.113-1.657-.955c-.173-.098-.366-.213-.585-.341-.213-.13-.431-.265-.644-.403-.213-.14-.41-.27-.587-.387.042.063.105.163.186.297.082.136.167.284.259.449.092.165.18.322.265.476.082.151.151.276.205.378l1.338,2.6Z"/>
            <path class="cls-1" d="M209.525,228.786c-.257.443-.5.757-.736.947-.238.19-.454.295-.652.309-.198.019-.36-.008-.493-.086-.169-.096-.268-.219-.309-.362-.038-.148-.002-.314.107-.504.169.094.343.144.527.142.18-.002.359-.059.533-.174.173-.115.334-.291.47-.529.142-.244.217-.491.238-.738.015-.253-.056-.495-.211-.731-.159-.238-.424-.468-.801-.683-.474-.274-.894-.353-1.264-.236-.376.113-.681.376-.918.79-.178.309-.291.554-.341.732-.044.18-.079.339-.098.479l-.186.178-3.01-2.119,1.726-2.989,1.377.734-.215.378-.291-.121c-.09-.035-.169-.056-.24-.059-.069-.004-.136.019-.201.069-.063.05-.132.138-.205.263l-1.003,1.735,1.883,1.313c.008-.075.031-.165.063-.272.035-.107.084-.234.15-.38.063-.146.146-.305.245-.479.226-.387.495-.692.813-.92.316-.226.665-.349,1.049-.366.38-.021.784.092,1.206.337.244.14.451.303.623.485.171.182.311.384.406.598.1.219.155.449.174.692.017.244-.006.499-.077.761-.069.263-.182.533-.339.805"/>
            <path class="cls-1" d="M197.451,221.227c-.226.395-.543.683-.947.867-.405.184-.903.228-1.494.128-.592-.1-1.283-.376-2.069-.83-.422-.244-.801-.527-1.137-.848-.336-.322-.606-.667-.8-1.035-.198-.366-.297-.75-.305-1.147-.004-.397.107-.792.334-1.185.196-.336.395-.585.612-.752.215-.167.426-.261.633-.286.205-.023.387.01.55.104.165.094.263.23.29.401.027.173-.023.368-.153.596-.196-.113-.391-.19-.577-.232-.188-.038-.36-.027-.522.033-.157.065-.291.192-.403.383-.173.299-.219.604-.136.922.086.322.288.644.614.976.33.334.775.677,1.336,1.032-.025-.148-.035-.303-.033-.464.002-.163.023-.336.073-.52.044-.184.123-.37.234-.564.316-.548.732-.89,1.244-1.028.514-.138,1.055-.04,1.628.29.42.242.742.531.978.869.234.337.36.704.378,1.093.015.393-.094.792-.328,1.196M196.975,220.916c.125-.215.173-.426.146-.637-.025-.209-.13-.418-.318-.625-.186-.207-.46-.414-.819-.621-.514-.297-.938-.42-1.275-.374-.337.048-.606.245-.805.591-.088.157-.15.318-.178.483-.029.167-.035.33-.019.489.015.161.04.307.077.437.901.506,1.607.763,2.117.777.508.011.869-.161,1.076-.52"/>
            <path class="cls-1" d="M184.429,215.106l-4.452-5.388-1.287,2.23c-.094.161-.125.307-.1.439.029.13.111.244.257.343l.424.293-.217.374-1.593-.978,2.309-3.998.261.148,4.859,5.739-.46.798Z"/>
            <path class="cls-1" d="M172.691,207.171c-.259.447-.55.778-.876.991-.326.213-.662.32-1.005.324-.347.004-.673-.082-.982-.263-.288-.165-.497-.364-.623-.596-.13-.234-.205-.495-.23-.784-.023-.286-.025-.596-.002-.924-.261.151-.518.268-.773.351-.255.086-.512.119-.767.102-.259-.015-.514-.1-.763-.242-.274-.159-.495-.374-.665-.648-.167-.272-.245-.594-.236-.966.011-.37.151-.784.416-1.244.219-.376.466-.658.75-.844.284-.186.579-.282.892-.284.311-.004.617.081.915.253.393.226.639.516.727.861.092.347.121.754.088,1.221.309-.221.612-.391.905-.516.297-.125.583-.19.859-.198.28-.006.55.067.813.221.566.324.897.775.987,1.344.092.569-.052,1.185-.43,1.841M169.096,204.797c.021-.29.002-.535-.048-.727-.052-.192-.144-.359-.278-.499-.13-.138-.297-.267-.506-.389-.184-.107-.38-.176-.583-.207-.205-.029-.406-.002-.598.084-.194.088-.362.257-.508.508-.192.336-.24.648-.14.945.102.295.303.531.614.711.215.125.428.186.633.186.207,0,.426-.054.656-.159.224-.107.481-.259.759-.454M172.305,206.887c.224-.387.291-.763.203-1.127-.088-.366-.305-.646-.65-.848-.203-.117-.416-.173-.642-.169-.224.006-.481.079-.765.22-.284.144-.621.359-1.014.65-.015.366.056.704.201,1.012.15.307.391.56.727.752.37.215.727.286,1.074.215s.637-.307.867-.706"/>
            <path class="cls-1" d="M160.13,200.469c-.194.334-.383.573-.569.721-.188.146-.36.221-.522.23-.159.008-.303-.025-.426-.098-.115-.065-.194-.148-.232-.249-.042-.1-.059-.188-.044-.268.157.021.314.015.474-.013s.311-.09.456-.19c.144-.1.27-.242.376-.426.288-.495.278-.987-.027-1.478-.307-.491-.903-1.012-1.783-1.561.05.142.088.303.113.483.023.182.013.372-.025.571-.042.197-.123.403-.242.612-.199.345-.443.614-.729.801-.29.188-.612.28-.97.27-.357-.008-.732-.127-1.135-.357-.428-.249-.765-.545-1.009-.886-.244-.347-.376-.715-.399-1.108-.023-.395.081-.792.313-1.193.236-.405.545-.706.936-.897.389-.192.857-.251,1.402-.176.545.077,1.17.318,1.873.725.472.272.894.575,1.269.911.376.337.673.698.895,1.087.222.383.341.788.357,1.206.017.42-.104.846-.353,1.283M157.267,198.302c.171-.293.234-.575.197-.853-.035-.274-.127-.504-.274-.694-.531-.301-.997-.495-1.388-.589-.393-.09-.717-.098-.976-.019-.253.079-.449.234-.583.468-.123.209-.163.426-.125.646.042.222.157.439.351.654s.468.428.817.629c.493.282.894.401,1.204.351.316-.05.577-.247.777-.592"/>
            <path class="cls-1" d="M149.489,190.405c-.28.487-.648.809-1.103.963-.454.15-.97.157-1.549.015-.579-.138-1.2-.399-1.864-.782-.663-.382-1.193-.786-1.599-1.216-.405-.428-.652-.876-.74-1.342-.092-.464.008-.943.293-1.438.267-.466.625-.777,1.076-.932.445-.157.959-.167,1.54-.034.579.132,1.2.389,1.866.773.66.38,1.193.792,1.595,1.231.401.439.65.892.75,1.358.096.466.01.934-.265,1.405M149.008,190.125c.167-.291.188-.585.059-.884-.123-.293-.376-.602-.752-.917-.374-.314-.855-.644-1.446-.986-.592-.341-1.118-.594-1.576-.759-.462-.167-.849-.23-1.164-.19-.314.042-.554.207-.721.495-.167.29-.192.585-.075.884.119.299.364.606.74.922.372.314.855.644,1.446.986.592.339,1.116.594,1.578.759.458.165.855.23,1.175.184.322-.044.569-.207.734-.495"/>
            <path class="cls-1" d="M145.605,196.93l-.38-.217.349-.6c.079-.138.136-.27.171-.399.035-.125.023-.249-.031-.37-.056-.117-.173-.23-.36-.337l-4.7-2.713c.146.385.251.719.32,1.003.069.28.05.51-.056.69-.075.13-.182.211-.32.244-.136.033-.276.008-.42-.075.058-.205.092-.437.113-.694.021-.253.004-.592-.048-1.012l-.105-.893.332-.573,5.405,3.122c.188.107.341.151.472.142.134-.012.245-.067.339-.163.096-.096.178-.211.255-.341l.255-.439.376.219-1.967,3.409Z"/>
            <path class="cls-1" d="M259.963,272.832l-.376.215-.347-.598c-.079-.138-.163-.249-.259-.345-.092-.09-.203-.146-.334-.157-.13-.011-.286.035-.474.142l-4.698,2.711c.406.069.748.146,1.026.226.276.082.47.211.573.391.073.13.092.263.048.399-.038.138-.132.245-.274.328-.151-.153-.334-.297-.543-.443-.211-.148-.512-.303-.903-.468l-.824-.359-.332-.571,5.405-3.12c.184-.107.303-.219.359-.337.054-.121.065-.242.029-.376-.034-.13-.092-.263-.167-.393l-.255-.437.378-.217,1.967,3.409Z"/>
            <path class="cls-1" d="M247.818,280.272l-.652.38-2.59-.502c-.554-.098-1.018-.167-1.396-.194-.378-.029-.711-.012-1.005.048-.291.059-.573.169-.849.326-.226.132-.407.282-.537.445-.132.165-.205.339-.224.531-.019.188.033.389.153.594.155.27.337.439.546.51.207.069.426.075.654.01.23-.063.462-.167.702-.303.082.142.142.282.174.418.036.134.031.261-.019.378-.046.121-.144.224-.293.309-.232.134-.477.188-.732.159-.251-.027-.508-.142-.765-.345-.255-.203-.493-.493-.711-.876-.221-.376-.347-.734-.38-1.076-.035-.343.019-.652.157-.926.138-.274.36-.502.665-.677.167-.098.345-.169.531-.219.186-.048.385-.075.594-.084.209-.01.431-.004.673.017.238.019.497.058.769.104.274.05.571.109.89.18l2.548.545-1.195-2.067c-.155-.267-.328-.41-.522-.428-.19-.015-.387.006-.585.061l-.18.058-.219-.376,1.576-.848,2.22,3.848Z"/>
            <path class="cls-1" d="M234.616,285.664c.226.393.366.744.418,1.047.054.305.036.558-.048.761-.084.205-.215.357-.387.456-.18.105-.349.134-.51.088-.161-.048-.291-.155-.387-.322.311-.178.512-.424.604-.738.092-.318.031-.658-.178-1.022-.138-.238-.311-.43-.52-.577-.207-.146-.451-.222-.732-.226-.282-.008-.6.094-.957.301-.378.217-.594.537-.656.957-.058.422.058.882.347,1.384l.165.284-.458.263-.165-.284c-.151-.263-.345-.47-.579-.614-.236-.148-.495-.222-.777-.228-.282-.004-.562.075-.842.238-.353.203-.585.431-.692.688-.109.259-.063.564.136.907.153.27.336.439.543.51.209.071.428.073.658.01.228-.065.462-.169.7-.305.125.217.19.422.196.615.006.197-.105.36-.332.493-.234.132-.476.186-.731.159-.255-.029-.51-.146-.767-.345-.257-.203-.493-.495-.715-.878-.326-.566-.466-1.089-.416-1.578.05-.485.303-.861.754-1.122.27-.155.55-.234.849-.238.295-.004.583.054.867.178.282.125.535.305.759.543-.079-.18-.146-.38-.198-.602-.054-.226-.071-.456-.048-.694.017-.24.094-.47.226-.686.13-.224.349-.416.644-.589.36-.207.702-.314,1.03-.32.326-.004.629.063.905.207.278.14.523.328.744.552.219.23.403.472.55.727"/>
            <path class="cls-1" d="M222.366,293.13l-.376.217-.144-.249c-.082-.14-.167-.253-.261-.345-.092-.094-.205-.148-.336-.161-.13-.01-.286.036-.472.144l-.736.424,1.593,2.755-.368.209-5.863-.299-.491-.848,4.134-2.389-.64-1.11.5-.288.64,1.11.736-.424c.182-.107.303-.222.357-.337.054-.121.065-.249.027-.378-.035-.13-.088-.261-.165-.391l-.069-.117.376-.219,1.557,2.696ZM220.761,295.56l-1.219-2.113-1.655.957c-.173.098-.368.211-.589.334-.219.121-.443.242-.669.355-.228.115-.437.224-.631.318.077-.004.194-.01.353-.011.155-.004.33-.004.518-.002.188.004.368.006.543.01.173.004.316.008.43.013l2.92.14Z"/>
            <path class="cls-1" d="M209.973,299.929c.255.443.406.813.451,1.114.046.297.027.537-.058.715-.082.182-.188.309-.32.383-.167.098-.324.127-.468.086-.148-.036-.276-.155-.385-.345.169-.098.295-.224.387-.385.09-.159.13-.341.115-.55-.012-.207-.086-.428-.224-.669-.142-.244-.314-.437-.522-.575-.207-.138-.454-.198-.74-.182-.284.019-.612.132-.989.353-.472.27-.748.596-.838.976-.084.382-.01.775.228,1.189.178.309.334.527.466.66s.253.24.366.328l.061.249-3.344,1.549-1.724-2.987,1.325-.83.219.378-.249.192c-.077.061-.134.121-.173.176-.038.058-.052.128-.04.209.011.081.052.184.125.311l1.003,1.735,2.075-.972c-.058-.046-.125-.111-.199-.194-.077-.084-.163-.192-.255-.316-.094-.128-.194-.28-.291-.454-.224-.385-.355-.777-.391-1.162-.038-.389.031-.754.203-1.091.176-.339.474-.633.897-.878.244-.14.489-.24.734-.297s.487-.075.721-.052c.238.023.464.088.685.194.222.109.43.255.623.447.194.194.37.422.527.698"/>
            <path class="cls-1" d="M197.394,306.607c.226.391.32.811.278,1.252-.044.443-.255.894-.637,1.359-.382.46-.964.92-1.753,1.375-.424.244-.857.433-1.306.562-.445.132-.876.188-1.292.174-.418-.013-.8-.115-1.147-.311-.345-.192-.633-.485-.861-.878-.194-.336-.307-.639-.343-.907-.038-.267-.013-.5.065-.69.082-.188.203-.332.364-.426.169-.096.334-.111.495-.052s.311.207.441.433c-.199.113-.36.242-.489.382-.13.142-.207.299-.23.468-.027.171.015.351.127.543.173.295.416.489.734.575.316.09.698.075,1.15-.038.449-.119.97-.332,1.565-.642-.144-.054-.284-.121-.426-.205-.136-.082-.274-.19-.412-.322-.136-.13-.257-.291-.368-.485-.318-.548-.406-1.08-.268-1.591.136-.512.491-.936,1.064-1.266.418-.242.832-.382,1.239-.412.412-.036.792.038,1.139.219.347.182.637.477.871.884M196.888,306.864c-.125-.215-.284-.364-.477-.447-.196-.081-.43-.096-.702-.035-.274.058-.589.188-.947.395-.512.295-.834.602-.959.917-.128.32-.094.65.107.997.088.153.198.286.328.391.13.111.27.198.414.265.146.067.286.119.416.153.888-.527,1.465-1.012,1.731-1.446.265-.437.295-.832.088-1.191"/>
            <path class="cls-1" d="M185.582,314.82l-6.891,1.164,1.287,2.23c.094.161.203.261.33.303.128.042.268.025.426-.048l.468-.224.217.378-1.645.892-2.309-4.002.261-.15,7.397-1.34.46.798Z"/>
            <path class="cls-1" d="M172.841,321.018c.259.451.399.869.42,1.258.021.389-.052.734-.222,1.033-.167.301-.405.541-.717.719-.286.165-.562.245-.826.24-.267-.004-.529-.071-.792-.192-.263-.125-.531-.28-.803-.462,0,.303-.029.581-.082.846-.056.265-.155.504-.299.717-.142.213-.339.393-.589.539-.276.157-.573.242-.892.251-.322.012-.64-.082-.957-.282-.314-.192-.606-.523-.872-.98-.215-.378-.334-.731-.355-1.07-.019-.337.048-.644.199-.915.153-.272.382-.495.677-.667.397-.228.765-.291,1.11-.196.345.092.711.27,1.101.531-.033-.376-.033-.725.01-1.043.038-.316.123-.598.257-.84.134-.245.332-.443.594-.594.568-.328,1.12-.387,1.66-.182.541.203.999.635,1.379,1.289M168.989,322.945c-.244-.159-.464-.267-.656-.318-.194-.052-.382-.058-.568-.01-.186.042-.383.121-.592.244-.184.107-.341.242-.47.405-.13.161-.203.347-.226.558-.021.211.04.443.186.694.192.334.443.531.746.592.309.063.616.006.928-.174.213-.125.372-.278.476-.456.104-.178.167-.393.188-.644.023-.249.019-.548-.011-.89M172.403,321.215c-.224-.389-.518-.637-.876-.74-.359-.109-.711-.063-1.058.138-.203.117-.359.274-.466.474-.107.198-.174.451-.192.773-.019.316,0,.715.056,1.202.311.192.637.301.978.328.339.025.679-.058,1.012-.249.37-.215.61-.489.723-.824.113-.337.054-.704-.176-1.101"/>
            <path class="cls-1" d="M160.76,328.547c.19.332.305.617.336.853.033.238.013.424-.059.568-.073.14-.173.247-.299.318-.111.067-.222.096-.332.079-.107-.013-.192-.046-.251-.1.094-.123.169-.263.224-.416.054-.148.077-.313.061-.487-.013-.174-.073-.357-.18-.543-.284-.493-.717-.731-1.294-.713-.577.021-1.325.274-2.243.765.15.025.309.073.476.144.169.069.33.173.481.305.155.136.291.309.412.516.199.347.311.69.328,1.032.019.345-.065.669-.249.974-.184.309-.479.573-.878.807-.428.245-.853.391-1.271.431-.42.036-.807-.033-1.158-.211-.355-.178-.646-.468-.878-.867-.234-.405-.337-.826-.309-1.258.027-.435.211-.869.548-1.302.337-.433.859-.853,1.563-1.264.472-.268.949-.481,1.427-.639s.94-.236,1.386-.234c.445.002.855.098,1.223.293.372.196.685.512.938.947M157.448,329.943c-.167-.291-.382-.491-.637-.596-.257-.107-.504-.142-.738-.111-.527.313-.928.616-1.204.911-.278.293-.445.571-.504.832-.061.261-.023.508.111.74.123.211.288.353.499.43.211.075.458.084.742.023.286-.058.602-.19.953-.393.489-.282.79-.575.907-.869.113-.297.073-.619-.128-.966"/>
            <path class="cls-1" d="M150.431,339.355l-.376.217-.347-.598c-.079-.136-.165-.251-.259-.345-.092-.092-.203-.148-.334-.157-.13-.013-.29.035-.474.144l-4.698,2.711c.407.065.748.142,1.026.224.276.082.466.213.569.391.077.13.094.265.052.397-.038.14-.132.249-.274.332-.153-.155-.334-.301-.545-.447-.209-.146-.51-.301-.901-.464l-.824-.357-.334-.573,5.405-3.12c.186-.107.305-.222.36-.339.054-.123.065-.244.029-.374-.035-.13-.092-.261-.167-.393l-.255-.439.378-.219,1.967,3.409Z"/>
            <path class="cls-1" d="M146.723,332.729c.282.489.378.966.282,1.436-.094.468-.349.92-.759,1.352-.41.43-.947.838-1.609,1.221-.663.382-1.283.637-1.854.778-.573.134-1.083.125-1.53-.029-.451-.155-.817-.481-1.103-.978-.267-.462-.357-.928-.268-1.392.092-.468.337-.918.742-1.354.403-.439.936-.847,1.599-1.229.662-.383,1.283-.639,1.864-.769.583-.128,1.101-.115,1.551.029.453.151.815.462,1.085.934M146.241,333.009c-.171-.293-.414-.46-.734-.495-.318-.042-.709.025-1.172.19-.462.169-.986.424-1.578.763-.589.341-1.072.667-1.446.982-.374.322-.623.621-.744.915-.121.291-.098.583.065.871.169.29.412.458.731.508.316.046.706-.011,1.168-.18.46-.165.987-.42,1.576-.761.591-.339,1.072-.669,1.448-.986.376-.314.625-.625.746-.924.125-.305.104-.596-.059-.882"/>
            <path class="cls-1" d="M270.375,276.482v.435h-.692c-.159,0-.301.015-.43.05-.127.034-.228.105-.305.213-.075.107-.113.267-.113.479v5.424c.263-.316.499-.575.708-.777.211-.197.418-.297.625-.297.153,0,.278.052.372.155.098.104.146.236.146.401-.207.058-.426.14-.656.251-.23.107-.516.291-.853.546l-.723.539h-.662v-6.243c0-.213-.036-.372-.113-.479-.075-.107-.178-.178-.311-.213-.13-.035-.272-.05-.424-.05h-.506v-.435h3.936Z"/>
            <path class="cls-1" d="M270.737,290.723v.754l-1.724,1.994c-.366.428-.656.798-.869,1.11-.215.314-.366.612-.46.895-.094.282-.138.583-.138.897,0,.263.036.493.111.688.077.196.192.347.347.46.153.109.353.165.594.165.311,0,.546-.073.711-.217.167-.146.278-.332.337-.564.058-.232.088-.483.088-.759.165,0,.314.019.449.056.134.04.242.107.32.207.079.102.119.236.119.408,0,.268-.075.506-.228.713-.151.207-.38.37-.681.491-.305.121-.675.18-1.116.18-.435,0-.807-.071-1.122-.211-.314-.142-.554-.339-.723-.598-.169-.259-.253-.566-.253-.917,0-.192.027-.382.079-.568.052-.186.123-.372.221-.56.098-.186.213-.374.353-.569.136-.199.295-.403.476-.617.178-.211.378-.441.598-.681l1.747-1.933h-2.387c-.311,0-.522.079-.631.24-.109.157-.188.337-.238.533l-.042.186h-.431l.052-1.785h4.441Z"/>
            <path class="cls-1" d="M268.816,304.855c.452,0,.826.052,1.116.159s.5.249.635.424c.134.176.201.362.201.564,0,.207-.059.368-.18.487-.121.117-.278.174-.47.174,0-.359-.113-.656-.341-.895-.228-.236-.55-.355-.97-.355-.276,0-.531.052-.761.161-.228.105-.418.278-.562.522-.146.242-.217.568-.217.98,0,.435.167.782.5,1.043.334.263.79.395,1.369.395h.33v.523h-.33c-.303,0-.577.069-.821.197-.245.132-.441.318-.585.56-.144.242-.217.522-.217.848,0,.405.084.723.253.943.169.224.452.337.851.337.311,0,.546-.073.715-.217.163-.146.274-.334.336-.564.058-.232.086-.483.086-.759.249,0,.458.046.631.138.173.094.257.272.257.533,0,.268-.075.506-.228.713-.148.205-.376.37-.681.491-.301.121-.675.18-1.116.18-.654,0-1.179-.144-1.574-.43-.397-.286-.596-.69-.596-1.214,0-.309.075-.594.219-.851.144-.259.341-.477.589-.662.249-.182.529-.313.848-.387-.194-.021-.401-.065-.619-.128-.22-.069-.431-.167-.625-.307-.197-.136-.359-.318-.481-.541-.123-.224-.186-.51-.186-.853,0-.414.079-.765.238-1.047.159-.286.368-.516.631-.685s.546-.29.851-.366c.307-.073.61-.113.905-.113"/>
            <path class="cls-1" d="M269.146,319.194v.435h-.29c-.157,0-.303.015-.428.052-.128.033-.228.104-.305.211-.077.107-.115.267-.115.481v.847h3.183v.424l-3.192,4.928h-.982v-4.774h-1.281v-.577h1.281v-.847c0-.215-.038-.374-.113-.481-.077-.107-.18-.178-.311-.211-.13-.036-.272-.052-.424-.052h-.134v-.435h3.11ZM270.448,321.797h-2.439v1.912c0,.201-.002.426-.006.677-.002.251-.012.506-.025.759-.013.255-.029.489-.04.702.035-.067.088-.171.165-.307.075-.14.161-.29.259-.451.096-.163.188-.318.278-.468.088-.146.165-.268.226-.366l1.582-2.458Z"/>
            <path class="cls-1" d="M268.846,333.33c.512,0,.907.054,1.189.165.282.111.479.245.592.408.115.161.173.318.173.47,0,.194-.054.343-.161.451-.105.104-.27.159-.491.159,0-.194-.046-.37-.138-.527-.094-.157-.234-.284-.42-.376-.186-.094-.416-.142-.692-.142-.282,0-.537.056-.759.167-.224.111-.399.293-.527.548-.127.253-.192.6-.192,1.032,0,.545.144.951.431,1.216.286.265.663.397,1.141.397.357,0,.627-.025.803-.073.18-.05.336-.098.466-.155l.249.073-.332,3.668h-3.449l-.052-1.561h.433l.04.313c.015.096.036.174.069.236.031.061.082.109.159.138.077.033.186.048.33.048h2.004l.197-2.284c-.069.029-.157.056-.267.079-.111.025-.245.044-.405.061-.159.019-.337.025-.539.025-.447,0-.848-.081-1.202-.242-.355-.163-.635-.403-.842-.723s-.311-.727-.311-1.216c0-.28.038-.545.107-.784.073-.24.178-.458.316-.652.138-.192.309-.359.512-.497.203-.136.435-.242.698-.313.263-.073.55-.109.867-.109"/>
            <path class="cls-1" d="M268.341,347.559c.454,0,.863.128,1.223.387.362.257.648.667.859,1.229.209.562.314,1.298.314,2.205,0,.491-.056.961-.165,1.411-.109.451-.276.855-.495,1.208-.222.357-.504.637-.844.836-.341.205-.738.307-1.193.307-.385,0-.704-.052-.957-.155-.251-.104-.439-.238-.564-.403-.123-.167-.186-.341-.186-.529,0-.192.069-.343.203-.453.132-.109.332-.165.594-.165,0,.226.029.431.086.614.058.182.155.328.29.435.134.105.313.159.533.159.345,0,.633-.113.869-.345.232-.232.412-.569.537-1.018.123-.451.199-1.007.226-1.672-.117.094-.245.182-.387.263-.142.079-.303.144-.485.194-.182.054-.385.079-.604.079-.635,0-1.139-.186-1.515-.562-.376-.378-.564-.895-.564-1.555,0-.483.088-.911.265-1.281.176-.372.43-.665.759-.874.33-.211.731-.314,1.198-.314M268.31,348.126c-.249,0-.458.063-.625.192-.169.127-.295.324-.383.589-.084.265-.128.604-.128,1.018,0,.592.104,1.022.314,1.292.213.268.516.401.917.401.176,0,.347-.029.506-.084.157-.061.303-.138.433-.23.13-.094.244-.188.341-.286-.015-1.033-.144-1.772-.387-2.22-.247-.447-.573-.671-.987-.671"/>
            <path class="cls-1" d="M269.55,361.904l-2.439,6.55h2.571c.186,0,.332-.042.431-.132.098-.09.157-.22.169-.395l.042-.516h.433l-.052,1.869h-4.619v-.299l2.544-7.077h.918Z"/>
            <path class="cls-1" d="M268.548,376.034c.518,0,.947.086,1.296.263.347.176.61.412.786.708.176.297.263.623.263.982,0,.332-.069.61-.207.838-.136.228-.326.424-.564.591-.238.163-.502.318-.798.464.261.151.491.316.69.497.199.176.357.382.47.612.115.232.173.493.173.78,0,.318-.077.617-.228.901-.153.282-.391.51-.717.686-.33.176-.759.263-1.289.263-.433,0-.803-.075-1.104-.226-.305-.153-.535-.362-.694-.631-.157-.268-.236-.575-.236-.918,0-.456.127-.809.382-1.06.255-.251.591-.481,1.012-.686-.345-.157-.644-.334-.899-.527-.255-.194-.452-.408-.598-.646s-.217-.51-.217-.811c0-.654.222-1.166.671-1.528.449-.366,1.051-.548,1.808-.548M268.496,376.507c-.447,0-.807.13-1.08.389-.272.259-.408.587-.408.986,0,.236.058.447.176.642.115.192.307.378.573.552.265.176.619.359,1.07.552.322-.173.581-.399.773-.681.196-.284.29-.619.29-1.003,0-.428-.117-.773-.351-1.037-.234-.265-.581-.401-1.043-.401M268.289,380.332c-.261.128-.464.267-.604.406-.142.142-.24.303-.293.487-.058.182-.084.393-.084.635,0,.215.038.416.115.61.075.192.197.351.37.476.174.123.403.186.694.186.383,0,.681-.117.888-.351.207-.236.311-.529.311-.89,0-.247-.052-.462-.155-.64-.104-.18-.259-.341-.464-.485-.209-.144-.466-.291-.777-.433"/>
            <path class="cls-1" d="M269.022,390.257c.385,0,.69.046.909.134.221.09.374.201.46.336.086.136.13.276.13.418,0,.132-.035.242-.1.326-.065.086-.134.144-.211.171-.063-.144-.146-.276-.249-.403-.104-.125-.234-.222-.393-.301-.157-.073-.343-.111-.556-.111-.571,0-.993.255-1.267.763-.27.51-.424,1.287-.458,2.326.096-.119.217-.23.36-.339.146-.113.313-.199.506-.267.194-.063.412-.096.652-.096.399,0,.754.077,1.058.232.307.157.546.389.719.704.173.314.259.698.259,1.162,0,.495-.09.934-.265,1.315-.176.383-.43.685-.759.899-.332.219-.727.326-1.189.326-.468,0-.884-.119-1.246-.362-.36-.242-.646-.615-.849-1.124-.207-.512-.311-1.172-.311-1.983,0-.546.052-1.064.155-1.557.104-.495.267-.934.489-1.319.224-.387.514-.688.869-.915.355-.222.784-.336,1.287-.336M268.578,393.821c-.337,0-.617.084-.836.255-.222.167-.374.362-.466.583.008.614.069,1.112.186,1.499.119.383.274.667.47.851.198.182.431.274.698.274.242,0,.449-.073.621-.219.171-.144.301-.355.393-.629.088-.274.132-.615.132-1.022,0-.568-.1-.972-.297-1.219-.201-.247-.502-.374-.901-.374"/>
            <path class="cls-1" d="M273.221,404.604v.435h-.692c-.159,0-.301.015-.43.05-.127.035-.228.105-.305.213-.075.107-.113.267-.113.479v5.424c.263-.316.499-.575.708-.777.211-.198.418-.297.625-.297.153,0,.278.052.372.155.098.104.146.236.146.401-.207.058-.426.14-.656.251-.23.107-.516.291-.853.546l-.723.539h-.662v-6.243c0-.213-.036-.372-.113-.479-.075-.107-.178-.178-.311-.213-.13-.035-.272-.05-.424-.05h-.506v-.435h3.936Z"/>
            <path class="cls-1" d="M265.627,404.501c.566,0,1.026.159,1.384.476.359.316.621.761.79,1.333.171.571.253,1.239.253,2.004s-.082,1.43-.253,1.994c-.169.566-.431,1.005-.79,1.313-.359.311-.823.464-1.394.464-.539,0-.986-.153-1.344-.464-.359-.309-.625-.748-.801-1.319-.173-.568-.263-1.233-.263-2s.09-1.428.268-1.996c.178-.569.447-1.012.801-1.329s.803-.476,1.348-.476M265.627,405.059c-.337,0-.602.128-.794.387-.196.259-.334.629-.42,1.11-.086.483-.13,1.064-.13,1.745,0,.685.044,1.267.13,1.747.086.485.224.849.42,1.103.192.249.453.376.784.376.337,0,.606-.127.803-.376.201-.253.345-.617.431-1.103.084-.479.128-1.062.128-1.747,0-.681-.044-1.262-.128-1.745-.086-.481-.23-.851-.431-1.11-.197-.259-.462-.387-.794-.387"/>
            <path class="cls-1" d="M281.031,268.38l.376.217-.347.6c-.079.138-.136.268-.169.397-.035.127-.023.249.031.372.056.115.173.23.36.337l4.698,2.711c-.148-.385-.249-.719-.318-1.001-.069-.284-.05-.512.056-.69.075-.132.182-.213.318-.245s.278-.006.42.077c-.056.205-.094.437-.113.692-.019.255-.002.592.05,1.012l.104.895-.332.571-5.403-3.122c-.188-.107-.345-.153-.474-.14-.132.012-.245.065-.339.161-.096.098-.18.211-.255.341l-.255.439-.374-.217,1.967-3.409Z"/>
            <path class="cls-1" d="M293.529,275.183l.652.38.865,2.491c.188.529.362.964.527,1.306.167.341.349.623.546.846.197.22.433.41.709.568.224.132.445.217.648.247.209.033.403.008.573-.071.173-.079.32-.221.439-.43.157-.27.211-.512.171-.727-.044-.217-.15-.408-.322-.573-.169-.167-.374-.316-.612-.456.082-.142.173-.263.272-.359.102-.098.217-.159.339-.174.127-.019.265.013.412.102.234.132.403.318.508.552.1.234.128.514.082.834-.05.324-.182.677-.405,1.056-.215.378-.462.665-.742.867-.278.201-.569.311-.88.326-.309.017-.615-.061-.917-.238-.169-.098-.322-.213-.458-.351-.132-.138-.257-.295-.372-.47-.109-.178-.217-.374-.318-.592-.104-.217-.201-.456-.295-.719-.094-.263-.194-.55-.29-.861l-.801-2.477-1.195,2.069c-.153.267-.19.487-.105.663.079.174.196.334.343.472l.144.13-.221.378-1.521-.94,2.22-3.848Z"/>
            <path class="cls-1" d="M304.813,283.914c.228-.391.46-.688.696-.886.238-.197.468-.311.685-.339.221-.027.414.008.587.107.18.104.291.236.334.399.042.165.013.33-.084.499-.311-.18-.623-.232-.945-.155-.316.081-.583.301-.794.665-.136.238-.217.483-.242.736-.021.253.035.502.171.748.14.249.385.474.744.681.376.217.759.247,1.152.086.393-.159.736-.487,1.024-.987l.165-.29.456.265-.165.288c-.151.263-.23.533-.24.811-.008.274.056.535.194.782.136.245.341.449.621.612.353.203.671.288.945.251.28-.031.518-.222.719-.568.153-.268.211-.512.167-.729-.04-.213-.148-.403-.318-.571-.169-.165-.376-.316-.612-.454.123-.213.267-.374.433-.474.167-.104.364-.09.591.038.232.134.399.32.502.554.104.234.132.514.086.836-.048.324-.182.675-.403,1.056-.326.568-.713.949-1.158,1.152-.443.199-.895.169-1.35-.092-.267-.155-.476-.36-.629-.615-.151-.255-.245-.533-.278-.84s-.006-.615.09-.93c-.115.159-.257.314-.426.474-.167.157-.357.288-.575.387-.217.102-.454.151-.709.148-.257-.004-.531-.094-.832-.265-.359-.207-.621-.453-.788-.731-.169-.28-.261-.575-.276-.886-.015-.313.021-.619.107-.924.088-.301.207-.583.355-.84"/>
            <path class="cls-1" d="M317.394,290.795l.374.219-.146.249c-.079.138-.134.27-.169.399-.035.127-.025.249.033.37.054.117.173.23.357.339l.736.422,1.59-2.755.366.209,2.673,5.233-.491.848-4.136-2.385-.64,1.108-.5-.29.642-1.108-.734-.424c-.186-.105-.341-.153-.472-.144-.132.013-.245.069-.339.163-.096.096-.18.211-.257.345l-.069.113-.374-.215,1.557-2.696ZM320.296,290.969l-1.221,2.113,1.659.955c.173.098.366.215.583.343.215.128.431.263.646.403.213.14.41.27.587.385-.044-.063-.105-.163-.188-.295-.081-.138-.165-.286-.259-.451-.092-.165-.18-.322-.265-.476-.081-.151-.15-.274-.203-.378l-1.338-2.6Z"/>
            <path class="cls-1" d="M329.489,298.126c.255-.443.5-.757.736-.945.238-.192.454-.297.652-.311.199-.019.36.008.491.086.169.096.274.215.311.362s.004.314-.105.504c-.167-.094-.345-.144-.527-.142-.184.002-.36.059-.535.174-.173.115-.33.291-.468.529-.142.244-.221.491-.238.738-.013.253.056.495.211.732.157.236.426.466.8.681.472.274.892.353,1.266.238.374-.115.677-.378.917-.792.176-.309.293-.554.339-.732.046-.18.082-.339.098-.479l.188-.178,3.012,2.119-1.726,2.989-1.379-.734.217-.378.29.121c.09.035.169.056.24.059.071.004.136-.019.199-.069.065-.048.134-.138.207-.265l1.003-1.733-1.879-1.315c-.011.077-.035.167-.065.274-.036.107-.084.234-.151.38-.063.146-.144.305-.245.479-.224.389-.495.692-.811.92-.316.226-.667.349-1.047.366-.382.021-.784-.096-1.21-.337-.242-.14-.452-.301-.625-.485-.171-.186-.305-.383-.405-.598-.1-.219-.155-.449-.174-.692-.017-.244.006-.499.077-.761.069-.263.182-.533.339-.805"/>
            <path class="cls-1" d="M341.556,305.678c.226-.393.545-.681.949-.865.405-.186.899-.23,1.49-.13.592.1,1.281.376,2.069.832.424.244.803.525,1.139.848.336.32.602.665.8,1.033.196.366.297.752.303,1.147.006.399-.104.792-.332,1.189-.194.332-.395.583-.612.748-.217.167-.426.263-.631.288-.205.023-.391-.01-.55-.104-.167-.094-.265-.232-.291-.403-.029-.171.023-.368.153-.596.196.113.391.19.577.232.186.038.36.029.522-.033.157-.065.293-.192.403-.383.173-.295.219-.604.136-.922-.084-.32-.29-.642-.614-.976-.328-.334-.773-.677-1.336-1.032.025.15.036.303.033.464-.002.163-.025.336-.073.52-.044.184-.125.374-.236.566-.314.546-.729.888-1.241,1.026-.514.138-1.056.042-1.628-.29-.42-.24-.744-.531-.978-.867-.236-.339-.36-.704-.38-1.095-.013-.393.092-.79.328-1.196M342.034,305.988c-.127.215-.174.428-.148.64.025.205.132.416.318.621.186.207.458.416.819.621.514.299.938.42,1.275.376.337-.05.606-.245.805-.592.088-.155.148-.316.178-.483.029-.165.035-.33.017-.487-.013-.163-.036-.309-.075-.439-.903-.506-1.605-.761-2.117-.775-.51-.012-.867.159-1.074.518"/>
            <path class="cls-1" d="M354.587,311.801l4.454,5.39,1.285-2.23c.094-.161.128-.307.1-.439-.027-.13-.109-.245-.255-.345l-.426-.291.217-.376,1.591.98-2.307,3.998-.259-.148-4.861-5.739.46-.8Z"/>
            <path class="cls-1" d="M366.325,319.741c.259-.447.55-.778.878-.991.324-.215.662-.322,1.005-.326.345-.006.673.084.982.263.288.165.495.366.619.598.13.232.207.491.232.78.023.29.023.596.002.926.263-.15.522-.268.777-.351.255-.084.51-.117.767-.1.257.015.51.096.759.242.276.159.495.374.667.648.167.27.245.594.234.964-.011.37-.15.786-.414,1.246-.219.376-.466.658-.75.844s-.579.28-.894.284c-.311.002-.617-.082-.915-.255-.393-.226-.637-.514-.725-.861-.094-.347-.123-.752-.092-1.221-.305.222-.61.393-.903.516-.295.127-.583.19-.857.198-.28.008-.55-.067-.813-.219-.566-.326-.897-.777-.987-1.344-.094-.571.05-1.185.428-1.841M366.713,320.023c-.224.389-.291.763-.205,1.129.09.364.305.646.652.848.203.117.414.171.642.167.224-.006.479-.079.765-.219.284-.142.621-.36,1.012-.652.015-.364-.056-.702-.203-1.01-.146-.309-.389-.56-.719-.752-.374-.215-.731-.288-1.079-.217-.345.073-.633.307-.865.706M369.919,322.113c-.017.293.002.537.05.729.054.192.144.359.274.499.134.136.303.268.51.387.186.107.38.176.589.207.201.031.401.004.594-.082.194-.09.362-.257.508-.508.19-.334.24-.65.138-.945-.1-.295-.301-.535-.612-.711-.217-.127-.428-.19-.635-.186-.207-.004-.426.052-.654.159-.226.105-.481.255-.763.453"/>
            <path class="cls-1" d="M378.878,326.438c.194-.334.383-.573.571-.721.186-.146.36-.221.522-.23.159-.008.301.025.426.098.113.065.192.148.23.247.044.102.058.19.044.27-.155-.021-.313-.013-.472.013-.159.029-.311.09-.458.19-.142.102-.27.242-.374.426-.288.495-.278.987.027,1.478.307.491.899,1.012,1.783,1.559-.054-.142-.09-.303-.113-.481-.025-.182-.015-.372.023-.571.04-.199.123-.403.242-.612.199-.345.443-.614.731-.801.288-.188.608-.28.968-.27.359.008.738.127,1.137.357.428.249.763.545,1.009.886.242.347.376.715.399,1.108.023.395-.082.792-.314,1.193-.234.405-.545.706-.936.897-.389.192-.857.251-1.402.176-.543-.077-1.168-.318-1.873-.725-.47-.272-.893-.575-1.265-.911-.38-.337-.675-.698-.899-1.087-.219-.383-.339-.788-.355-1.208-.017-.418.102-.844.351-1.281M381.742,328.604c-.167.293-.234.575-.199.853.038.274.127.504.274.694.533.301.997.495,1.39.587.391.092.717.098.972.021.257-.079.453-.234.587-.47.123-.207.161-.424.123-.644-.04-.222-.157-.439-.351-.654-.192-.215-.466-.428-.817-.629-.489-.284-.894-.401-1.206-.349-.314.048-.571.245-.773.591"/>
            <path class="cls-1" d="M393.404,329.975l.376.217-.345.6c-.081.138-.138.27-.171.399-.036.125-.023.249.029.37.056.117.174.23.362.339l4.698,2.711c-.146-.385-.251-.719-.322-1.003-.065-.28-.046-.51.058-.69.073-.13.184-.211.32-.242.136-.035.274-.01.42.073-.056.205-.096.437-.113.694-.019.255-.006.592.05,1.01l.104.897-.332.571-5.403-3.122c-.188-.107-.345-.155-.476-.142-.13.011-.245.067-.337.163-.094.096-.178.211-.255.341l-.255.439-.374-.219,1.967-3.409Z"/>
            <path class="cls-1" d="M389.519,336.5c.28-.487.646-.809,1.103-.963.452-.15.972-.157,1.549-.015.577.138,1.2.399,1.862.784.663.38,1.193.784,1.601,1.214.401.428.65.876.74,1.342.09.464-.01.943-.293,1.438-.268.468-.627.777-1.076.932-.447.157-.961.167-1.542.035-.577-.132-1.2-.391-1.864-.769-.662-.385-1.195-.796-1.595-1.235-.401-.441-.652-.892-.75-1.358-.098-.466-.008-.934.265-1.405M390,336.78c-.167.291-.19.585-.061.884.125.293.376.602.75.917.376.314.859.644,1.45.986.591.341,1.116.596,1.576.761.462.165.849.228,1.162.188.314-.042.554-.207.721-.495.167-.29.194-.587.077-.884-.119-.299-.364-.606-.74-.922-.374-.314-.857-.644-1.446-.984-.592-.341-1.118-.596-1.58-.761-.458-.165-.851-.23-1.175-.184-.322.044-.568.207-.732.495"/>
            <path class="cls-1" d="M276.643,258.564l.376-.217.347.598c.081.138.165.251.259.345.094.094.207.146.337.159.127.015.284-.035.47-.142l4.7-2.715c-.407-.063-.75-.142-1.024-.222-.28-.082-.47-.213-.573-.391-.075-.13-.094-.263-.05-.399.038-.136.13-.245.274-.328.151.151.332.301.543.443.211.146.512.299.901.466l.826.359.332.573-5.405,3.118c-.184.107-.305.221-.36.339-.054.119-.063.247-.027.372.035.134.09.265.167.397l.253.435-.378.219-1.967-3.409Z"/>
            <path class="cls-1" d="M288.787,251.134l.654-.376,2.589.499c.554.102,1.018.165,1.398.192.378.031.711.013,1.003-.046.291-.059.573-.169.849-.328.226-.13.407-.28.537-.443.134-.165.209-.339.226-.531.017-.19-.034-.389-.153-.598-.157-.267-.337-.435-.546-.506-.207-.071-.426-.075-.654-.01-.232.065-.462.167-.702.303-.082-.142-.142-.282-.174-.418-.036-.134-.029-.261.017-.378.046-.121.146-.222.293-.309.234-.134.477-.186.732-.157.253.025.508.14.765.341.257.203.495.497.713.876.219.378.345.736.38,1.078.033.341-.021.65-.157.926-.138.274-.362.5-.667.675-.165.098-.343.171-.529.22-.188.046-.387.075-.594.084-.211.01-.433.002-.675-.017-.238-.019-.495-.058-.769-.105-.274-.048-.571-.109-.888-.178l-2.548-.543,1.193,2.065c.157.268.328.41.522.428.192.015.389-.006.585-.063l.18-.058.219.376-1.574.849-2.222-3.848Z"/>
            <path class="cls-1" d="M301.991,245.732c-.228-.393-.368-.74-.42-1.045-.054-.307-.035-.558.05-.765.084-.203.215-.355.387-.454.18-.104.349-.134.51-.086.161.046.291.151.387.318-.311.18-.514.43-.606.744-.092.314-.031.654.178,1.018.138.238.313.43.52.579.209.146.453.221.734.224.282.006.6-.096.957-.301.376-.217.594-.537.652-.957.059-.42-.054-.878-.345-1.382l-.163-.286.456-.263.165.284c.151.263.347.47.581.617.234.144.493.22.777.224.28.002.56-.073.84-.236.353-.201.583-.433.694-.692.109-.257.063-.562-.136-.905-.153-.27-.336-.439-.545-.512-.207-.069-.428-.073-.656-.008-.23.065-.462.169-.7.305-.125-.215-.19-.42-.196-.615-.006-.197.104-.36.332-.491.234-.134.476-.188.731-.161.255.029.51.146.767.349.255.199.493.491.715.874.326.566.462,1.093.416,1.578-.052.485-.303.861-.754,1.122-.27.155-.55.236-.849.238-.295.004-.585-.056-.867-.178-.282-.125-.535-.303-.759-.541.079.178.146.378.198.602.052.222.069.454.048.692-.019.24-.094.47-.23.686-.127.222-.345.416-.642.589-.359.209-.7.313-1.028.32-.328.004-.629-.063-.905-.205-.278-.142-.523-.326-.744-.554-.219-.23-.403-.472-.55-.727"/>
            <path class="cls-1" d="M314.247,238.275l.372-.217.146.249c.081.138.167.253.259.345.092.094.205.148.336.159.13.011.288-.034.472-.142l.736-.424-1.593-2.757.368-.211,5.864.303.491.848-4.132,2.389.638,1.108-.5.29-.638-1.11-.738.424c-.182.107-.301.22-.355.337-.056.121-.067.245-.029.378.035.13.09.259.165.391l.069.117-.376.219-1.553-2.696ZM315.848,235.846l1.219,2.113,1.655-.957c.173-.102.368-.213.591-.336.217-.121.443-.242.669-.357.226-.117.435-.221.631-.314-.077.004-.196.01-.353.011-.157.004-.332.002-.518.002-.19-.004-.37-.008-.541-.01-.174-.004-.318-.008-.433-.015l-2.92-.138Z"/>
            <path class="cls-1" d="M326.635,231.466c-.255-.441-.403-.811-.451-1.112-.044-.299-.025-.537.059-.717.081-.18.188-.309.318-.384.169-.098.326-.125.468-.084.15.036.276.153.385.343-.165.098-.295.224-.387.385-.09.159-.128.343-.115.55.013.207.086.43.224.669.144.245.316.435.523.577.207.136.454.197.738.18s.614-.136.991-.353c.472-.27.748-.596.836-.974.086-.382.01-.778-.226-1.191-.18-.309-.334-.529-.468-.66-.13-.132-.253-.24-.364-.326l-.063-.251,3.344-1.549,1.726,2.991-1.327.824-.217-.378.251-.188c.073-.059.132-.123.171-.178.035-.059.05-.127.038-.209-.011-.081-.052-.184-.123-.309l-1.005-1.737-2.075.972c.059.046.127.109.203.194.073.082.159.19.253.32.094.127.192.278.291.451.222.387.353.777.391,1.162.038.389-.033.752-.205,1.093-.174.337-.474.631-.895.876-.244.14-.491.242-.736.297-.244.058-.485.075-.721.052-.236-.023-.464-.088-.685-.194-.221-.107-.428-.257-.621-.447-.194-.192-.37-.422-.529-.698"/>
            <path class="cls-1" d="M339.213,224.792c-.228-.395-.322-.811-.278-1.254.044-.443.255-.897.635-1.358.382-.464.966-.924,1.754-1.377.422-.244.855-.431,1.304-.562.447-.13.876-.19,1.294-.174.416.013.8.115,1.147.313.345.19.633.485.859.878.196.336.309.638.343.905.038.272.015.499-.065.692-.081.19-.203.328-.362.422-.169.098-.334.113-.497.054-.161-.059-.311-.207-.439-.433.198-.113.359-.242.489-.382.128-.142.205-.299.23-.47.027-.169-.017-.349-.127-.539-.173-.297-.416-.493-.734-.579-.318-.088-.7-.075-1.15.044-.449.117-.97.33-1.565.638.142.054.284.121.424.205.138.084.276.19.41.322.14.132.259.291.372.485.316.548.405,1.08.268,1.591-.138.516-.491.936-1.066,1.266-.416.242-.83.38-1.239.414-.412.031-.79-.042-1.137-.222-.347-.182-.637-.476-.871-.88M339.719,224.533c.125.215.284.364.476.447.197.082.43.094.702.035.274-.056.591-.188.949-.395.51-.295.832-.602.959-.918.128-.314.092-.648-.109-.995-.086-.153-.197-.284-.33-.393-.127-.107-.267-.196-.41-.261-.148-.067-.288-.119-.418-.155-.888.527-1.465,1.012-1.731,1.448-.265.435-.293.832-.086,1.189"/>
            <path class="cls-1" d="M351.025,216.574l6.891-1.164-1.285-2.228c-.094-.159-.203-.261-.332-.305-.128-.04-.268-.023-.424.05l-.47.222-.215-.374,1.645-.894,2.307,4-.259.15-7.397,1.342-.462-.8Z"/>
            <path class="cls-1" d="M363.768,210.375c-.259-.449-.399-.865-.42-1.254-.023-.389.05-.736.221-1.035.169-.297.407-.541.717-.717.286-.167.564-.247.828-.242.267.008.529.069.792.196.261.125.531.274.803.456,0-.299.027-.581.084-.844.054-.261.153-.502.295-.715.142-.215.341-.391.591-.537.274-.159.573-.244.894-.253.318-.01.638.082.953.278.314.194.606.523.872.984.217.376.334.732.355,1.07.019.337-.048.642-.197.917-.155.268-.382.493-.679.663-.397.228-.763.291-1.108.197-.345-.096-.713-.272-1.103-.533.035.378.033.727-.004,1.043-.042.318-.128.598-.261.842-.136.244-.334.445-.596.596-.566.326-1.12.383-1.66.178-.537-.201-.997-.633-1.377-1.29M364.206,210.183c.224.385.516.635.874.738.359.107.713.061,1.058-.14.203-.117.36-.274.468-.472.107-.197.173-.454.194-.771.017-.318,0-.719-.058-1.204-.313-.196-.635-.303-.978-.33-.341-.025-.679.056-1.012.251-.37.213-.612.487-.723.823-.113.336-.056.704.176,1.104M367.619,208.448c.244.163.466.268.656.32.194.052.384.056.569.011.186-.042.382-.125.591-.245.186-.107.343-.242.472-.403.13-.163.205-.347.226-.56.021-.211-.042-.443-.186-.692-.194-.334-.443-.533-.746-.592-.309-.063-.617-.006-.928.173-.213.123-.372.276-.476.456-.104.178-.165.393-.188.644-.023.253-.019.546.01.888"/>
            <path class="cls-1" d="M375.846,202.853c-.19-.334-.305-.619-.337-.853-.031-.238-.012-.424.063-.569.071-.142.171-.247.297-.32.111-.065.222-.092.332-.077.105.011.19.046.251.098-.094.125-.169.265-.224.416-.054.15-.075.314-.063.491.015.173.075.355.182.539.284.495.715.732,1.294.713.577-.019,1.325-.274,2.243-.763-.151-.025-.309-.073-.477-.142-.167-.071-.328-.174-.481-.307-.155-.136-.29-.309-.412-.516-.197-.345-.307-.69-.326-1.033-.021-.343.063-.667.247-.972.188-.309.481-.575.88-.807.43-.245.853-.391,1.271-.43.42-.038.805.029,1.158.209.355.176.644.466.878.867.232.407.337.824.309,1.258-.027.435-.211.869-.548,1.302-.337.435-.859.853-1.563,1.262-.472.27-.949.483-1.427.64-.477.157-.94.236-1.386.234-.445,0-.855-.098-1.223-.293-.372-.196-.685-.512-.938-.945M379.155,201.453c.171.293.383.493.638.6.257.105.504.144.738.109.527-.313.928-.615,1.204-.911.278-.293.445-.571.502-.832.063-.261.025-.506-.109-.738-.123-.211-.288-.355-.499-.43-.211-.077-.458-.086-.74-.025-.286.059-.604.192-.955.395-.489.282-.79.573-.907.869-.113.295-.073.619.127.963"/>
            <path class="cls-1" d="M386.176,192.04l.376-.217.349.598c.079.136.163.251.259.347.092.09.205.144.336.155.127.013.286-.033.472-.142l4.698-2.713c-.407-.065-.75-.142-1.024-.222-.278-.082-.47-.213-.573-.393-.077-.13-.094-.263-.052-.397.04-.138.132-.245.276-.328.151.153.334.297.543.443.211.148.512.299.903.464l.825.357.332.577-5.405,3.118c-.186.107-.303.221-.36.337-.052.123-.063.247-.027.378.035.13.092.261.167.393l.253.435-.378.219-1.967-3.409Z"/>
            <path class="cls-1" d="M389.887,198.669c-.284-.491-.378-.968-.282-1.438.094-.468.347-.92.759-1.35.41-.431.945-.84,1.607-1.223.665-.382,1.285-.64,1.856-.777.573-.136,1.081-.128,1.53.027.449.155.817.483,1.103.98.267.46.355.928.267,1.392-.09.466-.336.915-.74,1.354-.403.435-.936.844-1.601,1.227-.66.383-1.283.638-1.864.769-.583.127-1.099.117-1.551-.033-.452-.146-.813-.458-1.083-.928M390.368,198.389c.171.291.412.458.732.495.32.036.709-.025,1.172-.192.462-.169.986-.424,1.576-.763.592-.341,1.076-.667,1.45-.984.374-.318.621-.621.744-.913.121-.293.098-.583-.067-.869-.167-.291-.412-.46-.731-.51-.316-.048-.706.011-1.166.182-.46.163-.987.418-1.576.759-.592.339-1.074.667-1.45.986-.374.314-.625.623-.744.924-.127.305-.105.596.059.884"/>
          </g>
        </g>
        <g>
          <g>
            <path class="cls-1" d="M201.471,523.127l5.013-12.227h3.441l4.942,12.227h-3.248l-1.118-2.952h-4.769l-1.136,2.952h-3.126ZM206.641,517.782h2.97l-1.468-3.913-1.502,3.913Z"/>
            <path class="cls-1" d="M220.614,523.302c-1.129,0-2.11-.225-2.943-.673-.832-.448-1.476-1.085-1.93-1.912s-.681-1.799-.681-2.917v-6.899h3.004v6.899c0,.547.104,1.027.314,1.44.209.414.509.731.899.952.39.222.841.332,1.354.332.524,0,.976-.11,1.354-.332.379-.221.673-.538.883-.952.209-.413.313-.894.313-1.44v-6.899h3.005v6.899c0,1.106-.23,2.072-.69,2.899s-1.106,1.467-1.938,1.921c-.833.454-1.813.682-2.943.682Z"/>
            <path class="cls-1" d="M231.338,523.127v-9.571h-4v-2.655h11.004v2.655h-4v9.571h-3.004Z"/>
            <path class="cls-1" d="M239.669,523.127v-12.227h9.642v2.603h-6.637v2.2h4.384v2.516h-4.384v2.306h6.707v2.603h-9.712Z"/>
            <path class="cls-1" d="M251.145,523.127v-12.227h2.83l5.555,7.092v-7.092h2.829v12.227h-2.655l-5.729-7.371v7.371h-2.83Z"/>
            <path class="cls-1" d="M267.687,523.127v-9.571h-4v-2.655h11.003v2.655h-4v9.571h-3.004Z"/>
            <path class="cls-1" d="M276.017,523.127v-12.227h3.005v12.227h-3.005Z"/>
            <path class="cls-1" d="M287.178,523.302c-.932,0-1.796-.16-2.594-.48s-1.493-.766-2.087-1.336-1.057-1.237-1.389-2-.498-1.587-.498-2.472c0-.896.166-1.727.498-2.489s.798-1.429,1.397-2c.6-.57,1.298-1.016,2.096-1.336s1.656-.48,2.576-.48c.676,0,1.339.1,1.991.297.652.198,1.255.475,1.809.83.553.355,1.016.777,1.388,1.266l-2.025,1.991c-.432-.547-.911-.954-1.441-1.223-.53-.268-1.104-.401-1.721-.401-.488,0-.946.091-1.371.271-.425.181-.795.429-1.108.742s-.56.688-.734,1.118-.262.902-.262,1.415c0,.501.09.964.271,1.389s.431.798.751,1.118.699.567,1.136.742.911.262,1.424.262c.594,0,1.144-.128,1.65-.384.507-.257.963-.635,1.371-1.136l1.974,1.938c-.373.478-.833.895-1.38,1.249-.548.355-1.142.629-1.781.821-.641.191-1.287.288-1.939.288Z"/>
            <path class="cls-1" d="M293.553,523.127v-12.227h3.005v12.227h-3.005Z"/>
            <path class="cls-1" d="M298.583,523.127v-12.227h4.961c.908,0,1.752.157,2.532.472s1.465.751,2.053,1.31c.588.56,1.048,1.212,1.38,1.956.332.746.498,1.549.498,2.411,0,.85-.166,1.642-.498,2.375s-.792,1.377-1.38,1.931c-.588.553-1.272.986-2.053,1.301s-1.624.472-2.532.472h-4.961ZM301.588,520.472h1.886c.478,0,.923-.087,1.337-.262.413-.175.777-.419,1.092-.733s.559-.679.733-1.092.262-.858.262-1.336c0-.489-.087-.946-.262-1.371s-.419-.795-.733-1.109-.679-.562-1.092-.742c-.414-.181-.859-.271-1.337-.271h-1.886v6.916Z"/>
            <path class="cls-1" d="M309.763,523.127l5.013-12.227h3.441l4.942,12.227h-3.248l-1.118-2.952h-4.769l-1.136,2.952h-3.126ZM314.933,517.782h2.97l-1.468-3.913-1.502,3.913Z"/>
            <path class="cls-1" d="M324.05,523.127v-12.227h4.961c.908,0,1.752.157,2.532.472s1.465.751,2.053,1.31c.588.56,1.048,1.212,1.38,1.956.332.746.498,1.549.498,2.411,0,.85-.166,1.642-.498,2.375s-.792,1.377-1.38,1.931c-.588.553-1.272.986-2.053,1.301s-1.624.472-2.532.472h-4.961ZM327.055,520.472h1.886c.478,0,.923-.087,1.337-.262.413-.175.777-.419,1.092-.733s.559-.679.733-1.092.262-.858.262-1.336c0-.489-.087-.946-.262-1.371s-.419-.795-.733-1.109-.679-.562-1.092-.742c-.414-.181-.859-.271-1.337-.271h-1.886v6.916Z"/>
          </g>
          <polygon class="cls-1" points="254.971 496.234 258.428 481.305 246.815 471.262 262.114 469.971 268.058 455.873 274.002 469.971 289.297 471.262 277.687 481.305 281.188 496.234 268.058 488.264 254.971 496.234"/>
        </g>
        <g>
          <g>
            <path class="cls-1" d="M6.506,152.512l-4.943-12.227h3.249l3.476,9.1,3.546-9.1h3.126l-5.013,12.227h-3.44Z"/>
            <path class="cls-1" d="M12.619,152.512l5.013-12.227h3.441l4.942,12.227h-3.248l-1.118-2.952h-4.769l-1.136,2.952h-3.126ZM17.789,147.168h2.97l-1.468-3.913-1.502,3.913Z"/>
            <path class="cls-1" d="M26.906,152.512v-12.227h3.005v9.571h6.445v2.655h-9.45Z"/>
            <path class="cls-1" d="M38.032,152.512v-12.227h3.005v12.227h-3.005Z"/>
            <path class="cls-1" d="M43.062,152.512v-12.227h4.961c.908,0,1.752.157,2.532.472s1.465.751,2.053,1.31c.588.56,1.048,1.212,1.38,1.956.332.746.498,1.549.498,2.411,0,.85-.166,1.642-.498,2.375s-.792,1.377-1.38,1.931c-.588.553-1.272.986-2.053,1.301s-1.624.472-2.532.472h-4.961ZM46.067,149.857h1.886c.478,0,.923-.087,1.337-.262.413-.175.777-.419,1.092-.733s.559-.679.733-1.092.262-.858.262-1.336c0-.489-.087-.946-.262-1.371s-.419-.795-.733-1.109-.679-.562-1.092-.742c-.414-.181-.859-.271-1.337-.271h-1.886v6.916Z"/>
            <path class="cls-1" d="M54.241,152.512l5.013-12.227h3.441l4.942,12.227h-3.248l-1.118-2.952h-4.769l-1.136,2.952h-3.126ZM59.411,147.168h2.97l-1.468-3.913-1.502,3.913Z"/>
            <path class="cls-1" d="M73.961,152.687c-.932,0-1.796-.16-2.594-.48s-1.493-.766-2.087-1.336-1.057-1.237-1.389-2-.498-1.587-.498-2.472c0-.896.166-1.727.498-2.489s.798-1.429,1.397-2c.6-.57,1.298-1.016,2.096-1.336s1.656-.48,2.576-.48c.676,0,1.339.1,1.991.297.652.198,1.255.475,1.809.83.553.355,1.016.777,1.388,1.266l-2.025,1.991c-.432-.547-.911-.954-1.441-1.223-.53-.268-1.104-.401-1.721-.401-.488,0-.946.091-1.371.271-.425.181-.795.429-1.108.742s-.56.688-.734,1.118-.262.902-.262,1.415c0,.501.09.964.271,1.389s.431.798.751,1.118.699.567,1.136.742.911.262,1.424.262c.594,0,1.144-.128,1.65-.384.507-.257.963-.635,1.371-1.136l1.974,1.938c-.373.478-.833.895-1.38,1.249-.548.355-1.142.629-1.781.821-.641.191-1.287.288-1.939.288Z"/>
            <path class="cls-1" d="M80.336,152.512v-12.227h3.005v12.227h-3.005Z"/>
            <path class="cls-1" d="M91.463,152.705c-.921,0-1.776-.16-2.568-.48s-1.484-.769-2.078-1.345c-.594-.577-1.057-1.246-1.389-2.009s-.498-1.587-.498-2.472.166-1.709.498-2.472.795-1.433,1.389-2.009,1.286-1.024,2.078-1.345,1.647-.48,2.568-.48,1.775.16,2.567.48,1.484.769,2.078,1.345,1.057,1.246,1.389,2.009.498,1.587.498,2.472-.166,1.709-.498,2.472-.795,1.432-1.389,2.009c-.594.576-1.286,1.024-2.078,1.345s-1.648.48-2.567.48ZM91.463,149.945c.488,0,.942-.09,1.362-.271.419-.181.782-.429,1.092-.743.308-.314.55-.689.725-1.126s.262-.905.262-1.406c0-.513-.087-.984-.262-1.415s-.417-.804-.725-1.118c-.31-.313-.673-.562-1.092-.742-.42-.18-.874-.271-1.362-.271s-.943.091-1.363.271c-.419.181-.783.429-1.091.742-.309.314-.551.688-.726,1.118s-.262.897-.262,1.397c0,.513.087.987.262,1.424s.417.812.726,1.126c.308.314.672.562,1.091.743.42.181.874.271,1.363.271ZM89.926,138.853l1.537-2.375h3.161l-2.445,2.375h-2.253Z"/>
            <path class="cls-1" d="M99.584,152.512v-12.227h2.83l5.555,7.092v-7.092h2.829v12.227h-2.655l-5.729-7.371v7.371h-2.83Z"/>
            <path class="cls-1" d="M28.627,173.647c-.99,0-1.968-.181-2.935-.542-.967-.36-1.828-.861-2.585-1.502l1.677-2.184c.745.606,1.433,1.04,2.062,1.302.628.262,1.298.393,2.008.393.466,0,.862-.046,1.188-.14.325-.093.576-.229.751-.41s.262-.393.262-.638c0-.338-.128-.6-.384-.786-.257-.186-.693-.332-1.311-.437l-2.689-.472c-.99-.175-1.753-.553-2.288-1.135-.536-.582-.804-1.322-.804-2.219,0-.792.201-1.473.603-2.044.401-.57.979-1.007,1.729-1.31s1.645-.454,2.681-.454c.908,0,1.822.154,2.742.463s1.718.736,2.394,1.284l-1.59,2.218c-1.258-.966-2.51-1.449-3.755-1.449-.408,0-.76.043-1.058.131-.297.087-.523.209-.681.366s-.236.347-.236.568c0,.303.114.535.341.698.228.163.597.291,1.109.385l2.532.419c1.177.187,2.07.576,2.682,1.17s.917,1.362.917,2.306c0,.827-.216,1.54-.646,2.14s-1.048,1.062-1.852,1.389-1.758.489-2.864.489Z"/>
            <path class="cls-1" d="M41.465,173.665c-.921,0-1.776-.16-2.568-.48s-1.484-.769-2.078-1.345c-.594-.577-1.057-1.246-1.389-2.009s-.498-1.587-.498-2.472.166-1.709.498-2.472.795-1.433,1.389-2.009,1.286-1.024,2.078-1.345,1.647-.48,2.568-.48,1.775.16,2.567.48,1.484.769,2.078,1.345,1.057,1.246,1.389,2.009.498,1.587.498,2.472-.166,1.709-.498,2.472-.795,1.432-1.389,2.009c-.594.576-1.286,1.024-2.078,1.345s-1.648.48-2.567.48ZM41.465,170.905c.488,0,.942-.09,1.362-.271.419-.181.782-.429,1.092-.743.308-.314.55-.689.725-1.126s.262-.905.262-1.406c0-.513-.087-.984-.262-1.415s-.417-.804-.725-1.118c-.31-.313-.673-.562-1.092-.742-.42-.18-.874-.271-1.362-.271s-.943.091-1.363.271c-.419.181-.783.429-1.091.742-.309.314-.551.688-.726,1.118s-.262.897-.262,1.397c0,.513.087.987.262,1.424s.417.812.726,1.126c.308.314.672.562,1.091.743.42.181.874.271,1.363.271Z"/>
            <path class="cls-1" d="M55.717,173.647c-.932,0-1.796-.16-2.594-.48s-1.493-.766-2.087-1.336-1.057-1.237-1.389-2-.498-1.587-.498-2.472c0-.896.166-1.727.498-2.489s.798-1.429,1.397-2c.6-.57,1.298-1.016,2.096-1.336s1.656-.48,2.576-.48c.676,0,1.339.1,1.991.297.652.198,1.255.475,1.809.83.553.355,1.016.777,1.388,1.266l-2.025,1.991c-.432-.547-.911-.954-1.441-1.223-.53-.268-1.104-.401-1.721-.401-.488,0-.946.091-1.371.271-.425.181-.795.429-1.108.742s-.56.688-.734,1.118-.262.902-.262,1.415c0,.501.09.964.271,1.389s.431.798.751,1.118.699.567,1.136.742.911.262,1.424.262c.594,0,1.144-.128,1.65-.384.507-.257.963-.635,1.371-1.136l1.974,1.938c-.373.478-.833.895-1.38,1.249-.548.355-1.142.629-1.781.821-.641.191-1.287.288-1.939.288Z"/>
            <path class="cls-1" d="M62.093,173.472v-12.227h3.005v12.227h-3.005Z"/>
            <path class="cls-1" d="M65.988,173.472l5.013-12.227h3.441l4.942,12.227h-3.248l-1.118-2.952h-4.769l-1.136,2.952h-3.126ZM71.158,168.128h2.97l-1.468-3.913-1.502,3.913Z"/>
            <path class="cls-1" d="M80.275,173.472v-12.227h3.005v9.571h6.445v2.655h-9.45Z"/>
          </g>
          <path class="cls-1" d="M72.88,120.838h-17.755v-20.353l10.065-10.444,1.96,1.434c.328.251.568.546.719.886.148.339.224.734.224,1.185v.04l-1.62,6.899h11.76c.932,0,1.76.362,2.489,1.091.731.729,1.095,1.547,1.095,2.45v1.396c0,.326-.046.698-.134,1.11-.088.414-.194.761-.32,1.037l-4.523,10.592c-.301.754-.828,1.39-1.584,1.906-.754.514-1.544.771-2.374.771M52.862,120.838h-4.713v-20.355h4.713v20.355Z"/>
        </g>
        <g>
          <g>
            <path class="cls-1" d="M217.069,70.659l5.013-12.227h3.441l4.942,12.227h-3.248l-1.118-2.952h-4.769l-1.136,2.952h-3.126ZM222.239,65.315h2.97l-1.468-3.913-1.502,3.913Z"/>
            <path class="cls-1" d="M232.387,70.659v-9.571h-4v-2.655h11.004v2.655h-4v9.571h-3.004Z"/>
            <path class="cls-1" d="M240.718,70.659v-12.227h6.254c.838,0,1.583.166,2.235.498.652.331,1.161.792,1.528,1.38s.55,1.26.55,2.017c0,.769-.209,1.456-.629,2.062-.419.605-.972,1.065-1.659,1.38l2.673,4.891h-3.354l-2.306-4.454h-2.288v4.454h-3.005ZM243.723,63.76h2.969c.466,0,.842-.128,1.127-.384.285-.257.428-.588.428-.996s-.143-.739-.428-.995c-.285-.257-.661-.385-1.127-.385h-2.969v2.76Z"/>
            <path class="cls-1" d="M251.862,70.659l5.013-12.227h3.441l4.942,12.227h-3.248l-1.118-2.952h-4.769l-1.136,2.952h-3.126ZM257.032,65.315h2.97l-1.468-3.913-1.502,3.913Z"/>
            <path class="cls-1" d="M271.582,70.834c-.932,0-1.796-.16-2.594-.48s-1.493-.766-2.087-1.336-1.057-1.237-1.389-2-.498-1.587-.498-2.472c0-.896.166-1.727.498-2.489s.798-1.429,1.397-2c.6-.57,1.298-1.016,2.096-1.336s1.656-.48,2.576-.48c.675,0,1.338.1,1.991.297.652.198,1.255.475,1.809.83.553.355,1.016.777,1.388,1.266l-2.025,1.991c-.432-.547-.911-.954-1.441-1.223-.53-.268-1.104-.401-1.72-.401-.488,0-.946.091-1.371.271-.425.181-.795.429-1.108.742s-.56.688-.734,1.118-.262.902-.262,1.415c0,.501.09.964.271,1.389s.431.798.751,1.118.699.567,1.136.742.911.262,1.424.262c.593,0,1.143-.128,1.65-.384.507-.257.963-.635,1.371-1.136l1.974,1.938c-.373.478-.833.895-1.38,1.249-.548.355-1.142.629-1.781.821-.641.191-1.287.288-1.939.288Z"/>
            <path class="cls-1" d="M281.433,70.659v-9.571h-4v-2.655h11.004v2.655h-4v9.571h-3.004Z"/>
            <path class="cls-1" d="M289.763,70.659v-12.227h3.005v12.227h-3.005Z"/>
            <path class="cls-1" d="M298.602,70.659l-4.943-12.227h3.249l3.476,9.1,3.546-9.1h3.126l-5.013,12.227h-3.44Z"/>
            <path class="cls-1" d="M313.344,70.852c-.921,0-1.776-.16-2.568-.48s-1.484-.769-2.078-1.345c-.594-.577-1.057-1.246-1.389-2.009s-.498-1.587-.498-2.472.166-1.709.498-2.472.795-1.433,1.389-2.009,1.286-1.024,2.078-1.345,1.647-.48,2.568-.48,1.775.16,2.567.48,1.484.769,2.078,1.345,1.057,1.246,1.389,2.009.498,1.587.498,2.472-.166,1.709-.498,2.472-.795,1.432-1.389,2.009c-.594.576-1.286,1.024-2.078,1.345s-1.648.48-2.567.48ZM313.344,68.092c.488,0,.942-.09,1.362-.271.419-.181.782-.429,1.092-.743.308-.314.55-.689.725-1.126s.262-.905.262-1.406c0-.513-.087-.984-.262-1.415s-.417-.804-.725-1.118c-.31-.313-.673-.562-1.092-.742-.42-.18-.874-.271-1.362-.271s-.943.091-1.363.271c-.419.181-.783.429-1.091.742-.309.314-.551.688-.726,1.118s-.262.897-.262,1.397c0,.513.087.987.262,1.424s.417.812.726,1.126c.308.314.672.562,1.091.743.42.181.874.271,1.363.271Z"/>
          </g>
          <path class="cls-1" d="M266.298,1.885h4.406v6.75h-4.406V1.885ZM266.298,38.538h4.406v6.75h-4.406v-6.75ZM283.454,21.384h6.75v4.406h-6.75v-4.406ZM246.801,21.384h6.75v4.406h-6.75v-4.406ZM280.968,14.259l-3.186-3.188,4.264-4.218,3.14,3.14-4.218,4.266ZM254.955,40.32l-3.14-3.142,4.218-4.264,3.188,3.186-4.266,4.22ZM282.046,40.32l-4.264-4.22,3.186-3.186,4.218,4.264-3.14,3.142ZM256.033,14.259l-4.218-4.266,3.14-3.14,4.266,4.218-3.188,3.188ZM268.493,34.132c-2.93,0-5.42-1.026-7.468-3.078-2.045-2.052-3.069-4.543-3.069-7.475s1.026-5.422,3.08-7.468c2.05-2.047,4.541-3.069,7.475-3.069s5.42,1.024,7.465,3.078c2.048,2.052,3.071,4.543,3.071,7.475s-1.026,5.42-3.078,7.466c-2.052,2.048-4.543,3.071-7.475,3.071"/>
        </g>
        <g>
          <g>
            <path class="cls-1" d="M407.64,152.512v-12.227h6.254c.838,0,1.583.166,2.235.498.652.331,1.161.792,1.528,1.38s.55,1.26.55,2.017c0,.769-.209,1.456-.629,2.062-.419.605-.972,1.065-1.659,1.38l2.673,4.891h-3.354l-2.306-4.454h-2.288v4.454h-3.005ZM410.645,145.613h2.969c.466,0,.842-.128,1.127-.384.285-.257.428-.588.428-.996s-.143-.739-.428-.995c-.285-.257-.661-.385-1.127-.385h-2.969v2.76Z"/>
            <path class="cls-1" d="M419.744,152.512v-12.227h9.642v2.603h-6.637v2.2h4.384v2.516h-4.384v2.306h6.707v2.603h-9.712Z"/>
            <path class="cls-1" d="M436.651,152.687c-.932,0-1.796-.16-2.594-.48s-1.493-.766-2.087-1.336-1.057-1.237-1.389-2-.498-1.587-.498-2.472c0-.896.166-1.727.498-2.489s.798-1.429,1.397-2c.6-.57,1.298-1.016,2.096-1.336s1.656-.48,2.576-.48c.676,0,1.339.1,1.991.297.652.198,1.255.475,1.809.83.553.355,1.016.777,1.388,1.266l-2.025,1.991c-.432-.547-.911-.954-1.441-1.223-.53-.268-1.104-.401-1.721-.401-.488,0-.946.091-1.371.271-.425.181-.795.429-1.108.742s-.56.688-.734,1.118-.262.902-.262,1.415c0,.501.09.964.271,1.389s.431.798.751,1.118.699.567,1.136.742.911.262,1.424.262c.594,0,1.144-.128,1.65-.384.507-.257.963-.635,1.371-1.136l1.974,1.938c-.373.478-.833.895-1.38,1.249-.548.355-1.142.629-1.781.821-.641.191-1.287.288-1.939.288Z"/>
            <path class="cls-1" d="M443.027,152.512v-12.227h3.005v12.227h-3.005Z"/>
            <path class="cls-1" d="M448.058,152.512v-12.227h6.445c.804,0,1.517.172,2.14.516.623.343,1.115.812,1.477,1.405.36.594.541,1.275.541,2.044,0,.733-.181,1.395-.541,1.982-.361.588-.856,1.051-1.485,1.389s-1.339.507-2.131.507h-3.44v4.384h-3.005ZM451.062,145.648h3.092c.442,0,.797-.128,1.065-.385.268-.256.401-.588.401-.995,0-.419-.134-.76-.401-1.021-.269-.263-.623-.394-1.065-.394h-3.092v2.795Z"/>
            <path class="cls-1" d="M460.196,152.512v-12.227h6.254c.838,0,1.583.166,2.235.498.652.331,1.161.792,1.528,1.38s.55,1.26.55,2.017c0,.769-.209,1.456-.629,2.062-.419.605-.972,1.065-1.659,1.38l2.673,4.891h-3.354l-2.306-4.454h-2.288v4.454h-3.005ZM463.201,145.613h2.969c.466,0,.842-.128,1.127-.384.285-.257.428-.588.428-.996s-.143-.739-.428-.995c-.285-.257-.661-.385-1.127-.385h-2.969v2.76Z"/>
            <path class="cls-1" d="M478.397,152.705c-.921,0-1.776-.16-2.568-.48s-1.484-.769-2.078-1.345c-.594-.577-1.057-1.246-1.389-2.009s-.498-1.587-.498-2.472.166-1.709.498-2.472.795-1.433,1.389-2.009,1.286-1.024,2.078-1.345,1.647-.48,2.568-.48,1.775.16,2.567.48,1.484.769,2.078,1.345,1.057,1.246,1.389,2.009.498,1.587.498,2.472-.166,1.709-.498,2.472-.795,1.432-1.389,2.009c-.594.576-1.286,1.024-2.078,1.345s-1.648.48-2.567.48ZM478.397,149.945c.488,0,.942-.09,1.362-.271.419-.181.782-.429,1.092-.743.308-.314.55-.689.725-1.126s.262-.905.262-1.406c0-.513-.087-.984-.262-1.415s-.417-.804-.725-1.118c-.31-.313-.673-.562-1.092-.742-.42-.18-.874-.271-1.362-.271s-.943.091-1.363.271c-.419.181-.783.429-1.091.742-.309.314-.551.688-.726,1.118s-.262.897-.262,1.397c0,.513.087.987.262,1.424s.417.812.726,1.126c.308.314.672.562,1.091.743.42.181.874.271,1.363.271Z"/>
            <path class="cls-1" d="M492.649,152.687c-.932,0-1.796-.16-2.594-.48s-1.493-.766-2.087-1.336-1.057-1.237-1.389-2-.498-1.587-.498-2.472c0-.896.166-1.727.498-2.489s.798-1.429,1.397-2c.6-.57,1.298-1.016,2.096-1.336s1.656-.48,2.576-.48c.676,0,1.339.1,1.991.297.652.198,1.255.475,1.809.83.553.355,1.016.777,1.388,1.266l-2.025,1.991c-.432-.547-.911-.954-1.441-1.223-.53-.268-1.104-.401-1.721-.401-.488,0-.946.091-1.371.271-.425.181-.795.429-1.108.742s-.56.688-.734,1.118-.262.902-.262,1.415c0,.501.09.964.271,1.389s.431.798.751,1.118.699.567,1.136.742.911.262,1.424.262c.594,0,1.144-.128,1.65-.384.507-.257.963-.635,1.371-1.136l1.974,1.938c-.373.478-.833.895-1.38,1.249-.548.355-1.142.629-1.781.821-.641.191-1.287.288-1.939.288Z"/>
            <path class="cls-1" d="M499.024,152.512v-12.227h3.005v12.227h-3.005Z"/>
            <path class="cls-1" d="M504.055,152.512v-12.227h4.961c.908,0,1.752.157,2.532.472s1.465.751,2.053,1.31c.588.56,1.048,1.212,1.38,1.956.332.746.498,1.549.498,2.411,0,.85-.166,1.642-.498,2.375s-.792,1.377-1.38,1.931c-.588.553-1.272.986-2.053,1.301s-1.624.472-2.532.472h-4.961ZM507.06,149.857h1.886c.478,0,.923-.087,1.337-.262.413-.175.777-.419,1.092-.733s.559-.679.733-1.092.262-.858.262-1.336c0-.489-.087-.946-.262-1.371s-.419-.795-.733-1.109-.679-.562-1.092-.742c-.414-.181-.859-.271-1.337-.271h-1.886v6.916Z"/>
            <path class="cls-1" d="M515.234,152.512l5.013-12.227h3.441l4.942,12.227h-3.248l-1.118-2.952h-4.769l-1.136,2.952h-3.126ZM520.404,147.168h2.97l-1.468-3.913-1.502,3.913Z"/>
            <path class="cls-1" d="M529.521,152.512v-12.227h4.961c.908,0,1.752.157,2.532.472s1.465.751,2.053,1.31c.588.56,1.048,1.212,1.38,1.956.332.746.498,1.549.498,2.411,0,.85-.166,1.642-.498,2.375s-.792,1.377-1.38,1.931c-.588.553-1.272.986-2.053,1.301s-1.624.472-2.532.472h-4.961ZM532.526,149.857h1.886c.478,0,.923-.087,1.337-.262.413-.175.777-.419,1.092-.733s.559-.679.733-1.092.262-.858.262-1.336c0-.489-.087-.946-.262-1.371s-.419-.795-.733-1.109-.679-.562-1.092-.742c-.414-.181-.859-.271-1.337-.271h-1.886v6.916Z"/>
          </g>
          <path class="cls-1" d="M459.286,114.36c-.943-1.382-1.614-2.822-2.021-4.322-.405-1.499-.606-3.058-.606-4.675,0-4.548,1.651-8.508,4.955-11.877,3.3-3.371,7.209-5.054,11.723-5.054h2.174l-3.436-3.488,2.374-2.376,8.189,8.239-8.189,8.187-2.426-2.376,3.386-3.436h-1.971c-3.267,0-6.09,1.204-8.464,3.612-2.378,2.41-3.564,5.265-3.564,8.567,0,1.078.109,2.088.33,3.031.217.945.512,1.82.882,2.629l-3.336,3.336ZM472.832,128.309l-8.187-8.187,8.187-8.289,2.426,2.426-3.488,3.438h2.174c3.267,0,6.09-1.204,8.465-3.614,2.376-2.408,3.563-5.281,3.563-8.617,0-1.045-.109-2.038-.328-2.982-.219-.945-.531-1.82-.934-2.629l3.384-3.336c.911,1.415,1.576,2.865,1.998,4.349.42,1.48.631,3.014.631,4.598,0,4.583-1.651,8.565-4.953,11.951-3.302,3.388-7.194,5.081-11.675,5.081h-2.326l3.488,3.436-2.426,2.376Z"/>
        </g>
        <g>
          <g>
            <path class="cls-1" d="M11.772,409.408c-.932,0-1.796-.16-2.594-.48s-1.493-.766-2.087-1.336-1.057-1.238-1.389-2c-.332-.764-.498-1.588-.498-2.473,0-.896.166-1.727.498-2.488.332-.764.798-1.43,1.397-2s1.298-1.016,2.096-1.336,1.656-.48,2.576-.48c.676,0,1.339.1,1.991.297s1.255.475,1.809.83c.553.355,1.016.777,1.388,1.266l-2.025,1.99c-.432-.547-.911-.953-1.441-1.223-.53-.268-1.104-.4-1.721-.4-.488,0-.946.09-1.371.27-.425.182-.795.43-1.108.742-.314.314-.56.688-.734,1.119-.175.43-.262.902-.262,1.414,0,.502.09.965.271,1.389.181.426.431.799.751,1.119s.699.566,1.136.742c.437.174.911.262,1.424.262.594,0,1.144-.129,1.65-.385s.963-.635,1.371-1.135l1.974,1.938c-.373.479-.833.895-1.38,1.25-.548.355-1.142.629-1.781.82-.641.191-1.287.289-1.939.289Z"/>
            <path class="cls-1" d="M23.982,409.426c-.921,0-1.776-.16-2.568-.48s-1.484-.77-2.078-1.346-1.057-1.246-1.389-2.008c-.332-.764-.498-1.588-.498-2.473s.166-1.709.498-2.471c.332-.764.795-1.434,1.389-2.01s1.286-1.023,2.078-1.344,1.647-.48,2.568-.48,1.775.16,2.567.48,1.484.768,2.078,1.344,1.057,1.246,1.389,2.01c.332.762.498,1.586.498,2.471s-.166,1.709-.498,2.473c-.332.762-.795,1.432-1.389,2.008s-1.286,1.025-2.078,1.346-1.648.48-2.567.48ZM23.982,406.666c.488,0,.942-.09,1.362-.271.419-.18.782-.428,1.092-.742.308-.314.55-.689.725-1.127.175-.436.262-.904.262-1.406,0-.512-.087-.984-.262-1.414-.175-.432-.417-.805-.725-1.119-.31-.312-.673-.561-1.092-.742-.42-.18-.874-.27-1.362-.27s-.943.09-1.363.27c-.419.182-.783.43-1.091.742-.309.314-.551.688-.726,1.119-.175.43-.262.896-.262,1.396,0,.514.087.988.262,1.424.175.438.417.812.726,1.127.308.314.672.562,1.091.742.42.182.874.271,1.363.271Z"/>
            <path class="cls-1" d="M32.104,409.233v-12.227h2.83l5.555,7.092v-7.092h2.829v12.227h-2.655l-5.729-7.371v7.371h-2.83Z"/>
            <path class="cls-1" d="M49.85,409.408c-.99,0-1.968-.182-2.935-.543-.967-.359-1.828-.861-2.585-1.502l1.677-2.184c.745.607,1.433,1.041,2.062,1.303.628.262,1.298.393,2.008.393.466,0,.862-.047,1.188-.141.325-.092.576-.229.751-.41.175-.18.262-.393.262-.637,0-.338-.128-.6-.384-.787-.257-.186-.693-.332-1.311-.436l-2.689-.473c-.99-.174-1.753-.553-2.288-1.135-.536-.582-.804-1.322-.804-2.219,0-.791.201-1.473.603-2.043s.979-1.008,1.729-1.311,1.645-.453,2.681-.453c.908,0,1.822.154,2.742.463s1.718.736,2.394,1.283l-1.59,2.219c-1.258-.967-2.51-1.449-3.755-1.449-.408,0-.76.043-1.058.131-.297.086-.523.209-.681.365-.157.158-.236.348-.236.568,0,.303.114.535.341.699.228.162.597.291,1.109.385l2.532.418c1.177.188,2.07.576,2.682,1.17s.917,1.363.917,2.307c0,.826-.216,1.539-.646,2.139s-1.048,1.062-1.852,1.389-1.758.49-2.864.49Z"/>
            <path class="cls-1" d="M56.592,409.233v-12.227h3.005v12.227h-3.005Z"/>
            <path class="cls-1" d="M66.129,409.408c-.99,0-1.968-.182-2.935-.543-.967-.359-1.828-.861-2.585-1.502l1.677-2.184c.745.607,1.433,1.041,2.062,1.303.628.262,1.298.393,2.008.393.466,0,.862-.047,1.188-.141.325-.092.576-.229.751-.41.175-.18.262-.393.262-.637,0-.338-.128-.6-.384-.787-.257-.186-.693-.332-1.311-.436l-2.689-.473c-.99-.174-1.753-.553-2.288-1.135-.536-.582-.804-1.322-.804-2.219,0-.791.201-1.473.603-2.043s.979-1.008,1.729-1.311,1.645-.453,2.681-.453c.908,0,1.822.154,2.742.463s1.718.736,2.394,1.283l-1.59,2.219c-1.258-.967-2.51-1.449-3.755-1.449-.408,0-.76.043-1.058.131-.297.086-.523.209-.681.365-.157.158-.236.348-.236.568,0,.303.114.535.341.699.228.162.597.291,1.109.385l2.532.418c1.177.188,2.07.576,2.682,1.17s.917,1.363.917,2.307c0,.826-.216,1.539-.646,2.139s-1.048,1.062-1.852,1.389-1.758.49-2.864.49Z"/>
            <path class="cls-1" d="M75.91,409.233v-9.57h-4v-2.656h11.004v2.656h-4v9.57h-3.004Z"/>
            <path class="cls-1" d="M84.241,409.233v-12.227h9.642v2.604h-6.637v2.199h4.384v2.516h-4.384v2.307h6.707v2.602h-9.712Z"/>
            <path class="cls-1" d="M95.717,409.233v-12.227h2.83l5.555,7.092v-7.092h2.829v12.227h-2.655l-5.729-7.371v7.371h-2.83Z"/>
            <path class="cls-1" d="M115.087,409.408c-.932,0-1.796-.16-2.594-.48s-1.493-.766-2.087-1.336-1.057-1.238-1.389-2c-.332-.764-.498-1.588-.498-2.473,0-.896.166-1.727.498-2.488.332-.764.798-1.43,1.397-2s1.298-1.016,2.096-1.336,1.656-.48,2.576-.48c.676,0,1.339.1,1.991.297s1.255.475,1.809.83c.553.355,1.016.777,1.388,1.266l-2.025,1.99c-.432-.547-.911-.953-1.441-1.223-.53-.268-1.104-.4-1.721-.4-.488,0-.946.09-1.371.27-.425.182-.795.43-1.108.742-.314.314-.56.688-.734,1.119-.175.43-.262.902-.262,1.414,0,.502.09.965.271,1.389.181.426.431.799.751,1.119s.699.566,1.136.742c.437.174.911.262,1.424.262.594,0,1.144-.129,1.65-.385s.963-.635,1.371-1.135l1.974,1.938c-.373.479-.833.895-1.38,1.25-.548.355-1.142.629-1.781.82-.641.191-1.287.289-1.939.289Z"/>
            <path class="cls-1" d="M121.462,409.233v-12.227h3.005v12.227h-3.005Z"/>
            <path class="cls-1" d="M125.357,409.233l5.013-12.227h3.441l4.942,12.227h-3.248l-1.118-2.951h-4.769l-1.136,2.951h-3.126ZM130.527,403.889h2.97l-1.468-3.914-1.502,3.914Z"/>
            <path class="cls-1" d="M5.065,430.194v-4.559l-5.065-7.668h3.459l3.196,5.012,3.214-5.012h3.266l-5.065,7.668v4.559h-3.004Z"/>
            <path class="cls-1" d="M23.51,430.367c-.932,0-1.796-.16-2.594-.48s-1.493-.766-2.087-1.336-1.057-1.236-1.389-2c-.332-.762-.498-1.586-.498-2.471,0-.896.166-1.727.498-2.49.332-.762.798-1.428,1.397-2,.6-.57,1.298-1.016,2.096-1.336s1.656-.48,2.576-.48c.676,0,1.339.1,1.991.297.652.199,1.255.475,1.809.83.553.355,1.016.777,1.388,1.266l-2.025,1.992c-.432-.547-.911-.955-1.441-1.223s-1.104-.402-1.721-.402c-.488,0-.946.092-1.371.271s-.795.428-1.108.742c-.314.314-.56.688-.734,1.117-.175.432-.262.902-.262,1.416,0,.5.09.963.271,1.389.181.424.431.797.751,1.117s.699.568,1.136.742c.437.176.911.262,1.424.262.594,0,1.144-.127,1.65-.383.507-.258.963-.635,1.371-1.137l1.974,1.939c-.373.477-.833.895-1.38,1.248-.548.355-1.142.629-1.781.822-.641.191-1.287.287-1.939.287Z"/>
            <path class="cls-1" d="M35.72,430.385c-.921,0-1.776-.16-2.568-.48s-1.484-.768-2.078-1.344c-.594-.578-1.057-1.246-1.389-2.01-.332-.762-.498-1.586-.498-2.471s.166-1.709.498-2.473c.332-.762.795-1.432,1.389-2.008s1.286-1.025,2.078-1.346,1.647-.48,2.568-.48,1.775.16,2.567.48,1.484.77,2.078,1.346,1.057,1.246,1.389,2.008c.332.764.498,1.588.498,2.473s-.166,1.709-.498,2.471c-.332.764-.795,1.432-1.389,2.01-.594.576-1.286,1.023-2.078,1.344s-1.648.48-2.567.48ZM35.72,427.625c.488,0,.942-.09,1.362-.27.419-.182.782-.43,1.092-.744.308-.314.55-.689.725-1.125.175-.438.262-.906.262-1.406,0-.514-.087-.984-.262-1.416-.175-.43-.417-.803-.725-1.117-.31-.314-.673-.562-1.092-.742-.42-.18-.874-.271-1.362-.271s-.943.092-1.363.271c-.419.18-.783.428-1.091.742-.309.314-.551.688-.726,1.117-.175.432-.262.898-.262,1.398,0,.512.087.986.262,1.424.175.436.417.811.726,1.125.308.314.672.562,1.091.744.42.18.874.27,1.363.27Z"/>
            <path class="cls-1" d="M43.841,430.194v-12.227h3.791l3.021,5.764,3.021-5.764h3.79v12.227h-2.829v-8.332l-4.018,7.459-4.018-7.494v8.367h-2.76Z"/>
            <path class="cls-1" d="M59.49,430.194v-12.227h6.445c.804,0,1.517.172,2.14.516.623.342,1.115.811,1.477,1.404.36.594.541,1.275.541,2.045,0,.732-.181,1.395-.541,1.982-.361.588-.856,1.051-1.485,1.389s-1.339.506-2.131.506h-3.44v4.385h-3.005ZM62.495,423.328h3.092c.442,0,.797-.127,1.065-.385.268-.256.401-.588.401-.994,0-.42-.134-.76-.401-1.021-.269-.264-.623-.395-1.065-.395h-3.092v2.795Z"/>
            <path class="cls-1" d="M71.63,430.194v-12.227h6.254c.838,0,1.583.166,2.235.498.652.33,1.161.791,1.528,1.379s.55,1.26.55,2.018c0,.768-.209,1.455-.629,2.061-.419.605-.972,1.066-1.659,1.381l2.673,4.891h-3.354l-2.306-4.455h-2.288v4.455h-3.005ZM74.635,423.293h2.969c.466,0,.842-.127,1.127-.383.285-.258.428-.588.428-.996s-.143-.74-.428-.996-.661-.385-1.127-.385h-2.969v2.76Z"/>
            <path class="cls-1" d="M89.831,430.385c-.921,0-1.776-.16-2.568-.48s-1.484-.768-2.078-1.344c-.594-.578-1.057-1.246-1.389-2.01-.332-.762-.498-1.586-.498-2.471s.166-1.709.498-2.473c.332-.762.795-1.432,1.389-2.008s1.286-1.025,2.078-1.346,1.647-.48,2.568-.48,1.775.16,2.567.48,1.484.77,2.078,1.346,1.057,1.246,1.389,2.008c.332.764.498,1.588.498,2.473s-.166,1.709-.498,2.471c-.332.764-.795,1.432-1.389,2.01-.594.576-1.286,1.023-2.078,1.344s-1.648.48-2.567.48ZM89.831,427.625c.488,0,.942-.09,1.362-.27.419-.182.782-.43,1.092-.744.308-.314.55-.689.725-1.125.175-.438.262-.906.262-1.406,0-.514-.087-.984-.262-1.416-.175-.43-.417-.803-.725-1.117-.31-.314-.673-.562-1.092-.742-.42-.18-.874-.271-1.362-.271s-.943.092-1.363.271c-.419.18-.783.428-1.091.742-.309.314-.551.688-.726,1.117-.175.432-.262.898-.262,1.398,0,.512.087.986.262,1.424.175.436.417.811.726,1.125.308.314.672.562,1.091.744.42.18.874.27,1.363.27Z"/>
            <path class="cls-1" d="M97.952,430.194v-12.227h3.791l3.021,5.764,3.021-5.764h3.79v12.227h-2.829v-8.332l-4.018,7.459-4.018-7.494v8.367h-2.76Z"/>
            <path class="cls-1" d="M113.603,430.194v-12.227h3.005v12.227h-3.005Z"/>
            <path class="cls-1" d="M123.14,430.367c-.99,0-1.968-.18-2.935-.541s-1.828-.861-2.585-1.502l1.677-2.184c.745.605,1.433,1.039,2.062,1.301.628.262,1.298.393,2.008.393.466,0,.862-.045,1.188-.139.325-.094.576-.23.751-.41.175-.182.262-.393.262-.639,0-.338-.128-.6-.384-.785-.257-.186-.693-.332-1.311-.438l-2.689-.471c-.99-.176-1.753-.553-2.288-1.135-.536-.582-.804-1.322-.804-2.219,0-.793.201-1.473.603-2.045.401-.57.979-1.006,1.729-1.309s1.645-.455,2.681-.455c.908,0,1.822.154,2.742.463s1.718.736,2.394,1.285l-1.59,2.217c-1.258-.965-2.51-1.449-3.755-1.449-.408,0-.76.043-1.058.131-.297.088-.523.209-.681.367-.157.156-.236.346-.236.568,0,.303.114.535.341.697.228.164.597.291,1.109.385l2.532.42c1.177.186,2.07.576,2.682,1.17s.917,1.361.917,2.305c0,.828-.216,1.541-.646,2.141s-1.048,1.062-1.852,1.389-1.758.488-2.864.488Z"/>
            <path class="cls-1" d="M135.978,430.385c-.921,0-1.776-.16-2.568-.48s-1.484-.768-2.078-1.344c-.594-.578-1.057-1.246-1.389-2.01-.332-.762-.498-1.586-.498-2.471s.166-1.709.498-2.473c.332-.762.795-1.432,1.389-2.008s1.286-1.025,2.078-1.346,1.647-.48,2.568-.48,1.775.16,2.567.48,1.484.77,2.078,1.346,1.057,1.246,1.389,2.008c.332.764.498,1.588.498,2.473s-.166,1.709-.498,2.471c-.332.764-.795,1.432-1.389,2.01-.594.576-1.286,1.023-2.078,1.344s-1.648.48-2.567.48ZM135.978,427.625c.488,0,.942-.09,1.362-.27.419-.182.782-.43,1.092-.744.308-.314.55-.689.725-1.125.175-.438.262-.906.262-1.406,0-.514-.087-.984-.262-1.416-.175-.43-.417-.803-.725-1.117-.31-.314-.673-.562-1.092-.742-.42-.18-.874-.271-1.362-.271s-.943.092-1.363.271c-.419.18-.783.428-1.091.742-.309.314-.551.688-.726,1.117-.175.432-.262.898-.262,1.398,0,.512.087.986.262,1.424.175.436.417.811.726,1.125.308.314.672.562,1.091.744.42.18.874.27,1.363.27Z"/>
          </g>
          <path class="cls-1" d="M72.013,383.665c-3.049,0-5.877-.548-8.488-1.647-2.61-1.097-4.886-2.613-6.82-4.55-1.935-1.935-3.449-4.207-4.548-6.818-1.097-2.61-1.649-5.442-1.649-8.49,0-3.014.546-5.829,1.636-8.444,1.091-2.612,2.608-4.884,4.552-6.816,1.94-1.933,4.22-3.459,6.83-4.571,2.612-1.116,5.432-1.674,8.464-1.674,2.426,0,4.702.355,6.824,1.062,2.123.709,4.061,1.705,5.812,2.984l-3.689,3.739c-1.281-.842-2.671-1.501-4.174-1.973-1.501-.472-3.091-.708-4.772-.708-4.657,0-8.559,1.565-11.706,4.692-3.145,3.129-4.719,7.037-4.719,11.727,0,4.654,1.572,8.557,4.715,11.708,3.146,3.152,7.045,4.726,11.702,4.726s8.557-1.572,11.71-4.721c3.15-3.146,4.725-7.047,4.725-11.706,0-.717-.05-1.428-.151-2.13-.1-.704-.251-1.39-.454-2.065l4.094-4.042c.504,1.246.903,2.558,1.189,3.935.284,1.377.428,2.798.428,4.264,0,3.058-.556,5.894-1.67,8.504-1.116,2.612-2.638,4.888-4.571,6.832-1.935,1.942-4.209,3.457-6.82,4.548-2.613,1.091-5.426,1.636-8.444,1.636M68.957,372.142l-8.997-9.046,3.488-3.488,5.509,5.511,21.025-21.026,3.538,3.488-24.562,24.562Z"/>
        </g>
        <g>
          <g>
            <path class="cls-1" d="M412.792,409.233l5.013-12.227h3.441l4.942,12.227h-3.248l-1.118-2.951h-4.769l-1.136,2.951h-3.126ZM417.962,403.889h2.97l-1.468-3.914-1.502,3.914Z"/>
            <path class="cls-1" d="M431.935,409.408c-1.129,0-2.11-.225-2.943-.674-.832-.447-1.476-1.084-1.93-1.912-.454-.826-.681-1.799-.681-2.916v-6.9h3.004v6.9c0,.547.104,1.027.314,1.439.209.414.509.732.899.953.39.221.841.332,1.354.332.524,0,.976-.111,1.354-.332.379-.221.673-.539.883-.953.209-.412.313-.893.313-1.439v-6.9h3.005v6.9c0,1.105-.23,2.072-.69,2.898-.46.828-1.106,1.467-1.938,1.922-.833.453-1.813.682-2.943.682Z"/>
            <path class="cls-1" d="M442.659,409.233v-9.57h-4v-2.656h11.004v2.656h-4v9.57h-3.004Z"/>
            <path class="cls-1" d="M456.389,409.426c-.921,0-1.776-.16-2.568-.48s-1.484-.77-2.078-1.346-1.057-1.246-1.389-2.008c-.332-.764-.498-1.588-.498-2.473s.166-1.709.498-2.471c.332-.764.795-1.434,1.389-2.01s1.286-1.023,2.078-1.344,1.647-.48,2.568-.48,1.775.16,2.567.48,1.484.768,2.078,1.344,1.057,1.246,1.389,2.01c.332.762.498,1.586.498,2.471s-.166,1.709-.498,2.473c-.332.762-.795,1.432-1.389,2.008s-1.286,1.025-2.078,1.346-1.648.48-2.567.48ZM456.389,406.666c.488,0,.942-.09,1.362-.271.419-.18.782-.428,1.092-.742.308-.314.55-.689.725-1.127.175-.436.262-.904.262-1.406,0-.512-.087-.984-.262-1.414-.175-.432-.417-.805-.725-1.119-.31-.312-.673-.561-1.092-.742-.42-.18-.874-.27-1.362-.27s-.943.09-1.363.27c-.419.182-.783.43-1.091.742-.309.314-.551.688-.726,1.119-.175.43-.262.896-.262,1.396,0,.514.087.988.262,1.424.175.438.417.812.726,1.127.308.314.672.562,1.091.742.42.182.874.271,1.363.271Z"/>
            <path class="cls-1" d="M464.51,409.233v-12.227h6.254c.838,0,1.583.166,2.235.498s1.161.793,1.528,1.381.55,1.26.55,2.016c0,.77-.209,1.457-.629,2.062-.419.605-.972,1.064-1.659,1.379l2.673,4.891h-3.354l-2.306-4.453h-2.288v4.453h-3.005ZM467.515,402.334h2.969c.466,0,.842-.129,1.127-.385s.428-.588.428-.996-.143-.738-.428-.994c-.285-.258-.661-.385-1.127-.385h-2.969v2.76Z"/>
            <path class="cls-1" d="M476.614,409.233v-12.227h3.005v12.227h-3.005Z"/>
            <path class="cls-1" d="M481.645,409.233v-12.227h4.961c.908,0,1.752.158,2.532.473s1.465.75,2.053,1.309c.588.561,1.048,1.213,1.38,1.957.332.746.498,1.549.498,2.41,0,.85-.166,1.643-.498,2.375-.332.734-.792,1.377-1.38,1.932-.588.553-1.272.986-2.053,1.301s-1.624.471-2.532.471h-4.961ZM484.649,406.578h1.886c.478,0,.923-.088,1.337-.262.413-.176.777-.42,1.092-.734s.559-.678.733-1.092c.175-.412.262-.857.262-1.336,0-.488-.087-.945-.262-1.371-.175-.424-.419-.795-.733-1.109s-.679-.561-1.092-.742c-.414-.18-.859-.27-1.337-.27h-1.886v6.916Z"/>
            <path class="cls-1" d="M492.823,409.233l5.013-12.227h3.441l4.942,12.227h-3.248l-1.118-2.951h-4.769l-1.136,2.951h-3.126ZM497.993,403.889h2.97l-1.468-3.914-1.502,3.914Z"/>
            <path class="cls-1" d="M507.11,409.233v-12.227h4.961c.908,0,1.752.158,2.532.473s1.465.75,2.053,1.309c.588.561,1.048,1.213,1.38,1.957.332.746.498,1.549.498,2.41,0,.85-.166,1.643-.498,2.375-.332.734-.792,1.377-1.38,1.932-.588.553-1.272.986-2.053,1.301s-1.624.471-2.532.471h-4.961ZM510.115,406.578h1.886c.478,0,.923-.088,1.337-.262.413-.176.777-.42,1.092-.734s.559-.678.733-1.092c.175-.412.262-.857.262-1.336,0-.488-.087-.945-.262-1.371-.175-.424-.419-.795-.733-1.109s-.679-.561-1.092-.742c-.414-.18-.859-.27-1.337-.27h-1.886v6.916Z"/>
          </g>
          <path class="cls-1" d="M445.407,377.596h41.438v5.551h-41.438v-5.551ZM451.932,359.287h5.015v16.507h-5.015v-16.507ZM464.299,359.287h4.967v16.507h-4.967v-16.507ZM476.229,359.287h5.015v16.507h-5.015v-16.507ZM445.407,357.484v-4.626l20.695-11.686,20.743,11.686v4.626h-41.438Z"/>
        </g>
      </g>
    </g>
  </g>
</svg>