<?xml version="1.0" encoding="UTF-8"?>
<svg id="Capa_2" data-name="Capa 2" xmlns="http://www.w3.org/2000/svg" viewBox="0 0 37.83 37.83">
  <defs>
    <style>
      .cls-1 {
        fill: #fff;
      }
    </style>
  </defs>
  <g id="Layer_1" data-name="Layer 1">
    <path class="cls-1" d="M18.91,0C8.47,0,0,8.47,0,18.91s8.47,18.91,18.91,18.91,18.91-8.47,18.91-18.91S29.36,0,18.91,0ZM12.27,18.78v-1.75c0-1.33,1.08-2.41,2.41-2.41h1.75c1.33,0,2.41,1.08,2.41,2.41v1.75c0,1.33-1.08,2.41-2.41,2.41h-1.75c-1.33,0-2.41-1.08-2.41-2.41ZM18.86,31.73c0,.89-.72,1.61-1.61,1.61h-1.17c-.89,0-1.61-.72-1.61-1.61v-1.17c0-.89.72-1.61,1.61-1.61h1.17c.89,0,1.61.72,1.61,1.61v1.17ZM24.36,25.24c0,1.11-.9,2.01-2.01,2.01h-1.46c-1.11,0-2.01-.9-2.01-2.01v-1.46c0-1.11.9-2.01,2.01-2.01h1.46c1.11,0,2.01.9,2.01,2.01v1.46ZM27.66,10.99c0,1.77-1.44,3.21-3.21,3.21h-2.34c-1.77,0-3.21-1.44-3.21-3.21v-2.34c0-1.77,1.44-3.21,3.21-3.21h2.34c1.77,0,3.21,1.44,3.21,3.21v2.34Z"/>
  </g>
</svg>