<?xml version="1.0" encoding="UTF-8"?>
<svg xmlns="http://www.w3.org/2000/svg" version="1.1" viewBox="0 0 87.98 92.151">
  <defs>
    <style>
      .cls-1 {
        fill: #212121;
      }
    </style>
  </defs>
  <!-- Generator: Adobe Illustrator 28.7.1, SVG Export Plug-In . SVG Version: 1.2.0 Build 142)  -->
  <g>
    <g id="Capa_1">
      <g id="Capa_1-2" data-name="Capa_1">
        <path class="cls-1" d="M39.666,2.673h8.813v13.5h-8.813V2.673ZM39.666,75.979h8.813v13.5h-8.813v-13.5ZM73.977,41.671h13.5v8.813h-13.5v-8.813ZM.671,41.671h13.5v8.813H.671v-8.813ZM69.005,27.421l-6.373-6.376,8.528-8.436,6.28,6.28-8.436,8.532h0ZM16.98,79.542l-6.28-6.284,8.436-8.528,6.376,6.373s-8.532,8.439-8.532,8.439ZM71.161,79.542l-8.528-8.439,6.373-6.373,8.436,8.528-6.28,6.284h0ZM19.135,27.421l-8.436-8.532,6.28-6.28,8.532,8.436s-6.376,6.376-6.376,6.376ZM44.054,67.166c-5.861,0-10.84-2.052-14.936-6.156-4.09-4.104-6.138-9.086-6.138-14.951s2.052-10.843,6.159-14.937c4.1-4.093,9.083-6.138,14.951-6.138s10.84,2.048,14.929,6.156c4.097,4.104,6.142,9.086,6.142,14.951s-2.052,10.84-6.156,14.933c-4.104,4.097-9.086,6.142-14.951,6.142"/>
      </g>
    </g>
  </g>
</svg>